<?xml version="1.0" encoding="utf-8" standalone="no"?>
<!DOCTYPE svg PUBLIC "-//W3C//DTD SVG 1.1//EN"
  "http://www.w3.org/Graphics/SVG/1.1/DTD/svg11.dtd">
<svg xmlns:xlink="http://www.w3.org/1999/xlink" width="430.337656pt" height="222.334031pt" viewBox="0 0 430.337656 222.334031" xmlns="http://www.w3.org/2000/svg" version="1.1">
 <metadata>
  <rdf:RDF xmlns:dc="http://purl.org/dc/elements/1.1/" xmlns:cc="http://creativecommons.org/ns#" xmlns:rdf="http://www.w3.org/1999/02/22-rdf-syntax-ns#">
   <cc:Work>
    <dc:type rdf:resource="http://purl.org/dc/dcmitype/StillImage"/>
    <dc:date>2026-07-13T16:32:57.477339</dc:date>
    <dc:format>image/svg+xml</dc:format>
    <dc:creator>
     <cc:Agent>
      <dc:title>Matplotlib v3.10.9, https://matplotlib.org/</dc:title>
     </cc:Agent>
    </dc:creator>
   </cc:Work>
  </rdf:RDF>
 </metadata>
 <defs>
  <style type="text/css">*{stroke-linejoin: round; stroke-linecap: butt}</style>
 </defs>
 <g id="figure_1">
  <g id="patch_1">
   <path d="M 0 222.334031 
L 430.337656 222.334031 
L 430.337656 0 
L 0 0 
z
" style="fill: #ffffff"/>
  </g>
  <g id="axes_1">
   <g id="patch_2">
    <path d="M 45.137656 188.712 
L 424.577656 188.712 
L 424.577656 5.76 
L 45.137656 5.76 
z
" style="fill: #ffffff"/>
   </g>
   <g id="matplotlib.axis_1">
    <g id="xtick_1">
     <g id="line2d_1">
      <path d="M 48.507813 188.712 
L 48.507813 5.76 
" clip-path="url(#pe21d86925e)" style="fill: none; stroke: #e7ebeb; stroke-width: 0.8; stroke-linecap: square"/>
     </g>
     <g id="line2d_2"/>
     <g id="text_1">
      <!-- 0 -->
      <g style="fill: #9aa0a0" transform="translate(45.450157 200.066687) scale(0.11 -0.11)">
       <defs>
        <path id="HelveticaNeue-30" d="M 845 2234 
Q 845 2400 848 2601 
Q 851 2803 880 3004 
Q 909 3206 963 3398 
Q 1018 3590 1123 3734 
Q 1229 3878 1389 3968 
Q 1549 4058 1779 4058 
Q 2010 4058 2170 3968 
Q 2330 3878 2435 3734 
Q 2541 3590 2595 3398 
Q 2650 3206 2678 3004 
Q 2707 2803 2710 2601 
Q 2714 2400 2714 2234 
Q 2714 1978 2698 1661 
Q 2682 1344 2595 1065 
Q 2509 787 2317 595 
Q 2125 403 1779 403 
Q 1434 403 1242 595 
Q 1050 787 963 1065 
Q 877 1344 861 1661 
Q 845 1978 845 2234 
z
M 269 2227 
Q 269 1978 281 1709 
Q 294 1440 345 1184 
Q 397 928 493 701 
Q 589 474 755 301 
Q 922 128 1174 29 
Q 1427 -70 1779 -70 
Q 2138 -70 2387 29 
Q 2637 128 2803 301 
Q 2970 474 3066 701 
Q 3162 928 3213 1184 
Q 3264 1440 3277 1709 
Q 3290 1978 3290 2227 
Q 3290 2477 3277 2745 
Q 3264 3014 3213 3270 
Q 3162 3526 3066 3756 
Q 2970 3987 2803 4160 
Q 2637 4333 2384 4435 
Q 2131 4538 1779 4538 
Q 1427 4538 1174 4435 
Q 922 4333 755 4160 
Q 589 3987 493 3756 
Q 397 3526 345 3270 
Q 294 3014 281 2745 
Q 269 2477 269 2227 
z
" transform="scale(0.015625)"/>
       </defs>
       <use xlink:href="#HelveticaNeue-30"/>
      </g>
     </g>
    </g>
    <g id="xtick_2">
     <g id="line2d_3">
      <path d="M 98.068942 188.712 
L 98.068942 5.76 
" clip-path="url(#pe21d86925e)" style="fill: none; stroke: #e7ebeb; stroke-width: 0.8; stroke-linecap: square"/>
     </g>
     <g id="line2d_4"/>
     <g id="text_2">
      <!-- 25 -->
      <g style="fill: #9aa0a0" transform="translate(91.953629 200.066687) scale(0.11 -0.11)">
       <defs>
        <path id="HelveticaNeue-32" d="M 282 2931 
L 826 2931 
Q 819 3136 867 3337 
Q 915 3539 1024 3699 
Q 1133 3859 1302 3958 
Q 1472 4058 1709 4058 
Q 1888 4058 2048 4000 
Q 2208 3942 2326 3833 
Q 2445 3725 2515 3574 
Q 2586 3424 2586 3238 
Q 2586 3002 2512 2822 
Q 2438 2643 2294 2489 
Q 2150 2336 1932 2185 
Q 1715 2035 1427 1856 
Q 1190 1715 972 1555 
Q 755 1395 582 1184 
Q 410 973 298 688 
Q 186 403 154 0 
L 3117 0 
L 3117 480 
L 787 480 
Q 826 691 950 854 
Q 1075 1018 1251 1158 
Q 1427 1299 1638 1424 
Q 1850 1549 2061 1677 
Q 2272 1811 2470 1958 
Q 2669 2106 2822 2288 
Q 2976 2470 3069 2700 
Q 3162 2931 3162 3232 
Q 3162 3552 3050 3795 
Q 2938 4038 2746 4201 
Q 2554 4365 2294 4451 
Q 2035 4538 1741 4538 
Q 1382 4538 1100 4416 
Q 819 4294 630 4080 
Q 442 3866 352 3571 
Q 262 3277 282 2931 
z
" transform="scale(0.015625)"/>
        <path id="HelveticaNeue-35" d="M 3008 3981 
L 3008 4461 
L 768 4461 
L 346 2106 
L 813 2080 
Q 973 2272 1181 2390 
Q 1389 2509 1658 2509 
Q 1888 2509 2077 2432 
Q 2266 2355 2400 2217 
Q 2534 2080 2608 1891 
Q 2682 1702 2682 1478 
Q 2682 1210 2605 1008 
Q 2528 806 2397 672 
Q 2266 538 2090 470 
Q 1914 403 1722 403 
Q 1517 403 1347 464 
Q 1178 525 1053 637 
Q 928 749 854 899 
Q 781 1050 768 1222 
L 224 1222 
Q 230 915 345 672 
Q 461 429 659 265 
Q 858 102 1117 16 
Q 1376 -70 1670 -70 
Q 2067 -70 2364 54 
Q 2662 179 2860 390 
Q 3059 602 3158 874 
Q 3258 1146 3258 1434 
Q 3258 1824 3142 2115 
Q 3027 2406 2828 2601 
Q 2630 2797 2361 2893 
Q 2093 2989 1792 2989 
Q 1562 2989 1328 2909 
Q 1094 2829 947 2662 
L 934 2675 
L 1178 3981 
L 3008 3981 
z
" transform="scale(0.015625)"/>
       </defs>
       <use xlink:href="#HelveticaNeue-32"/>
       <use xlink:href="#HelveticaNeue-35" transform="translate(55.599991 0)"/>
      </g>
     </g>
    </g>
    <g id="xtick_3">
     <g id="line2d_5">
      <path d="M 147.63007 188.712 
L 147.63007 5.76 
" clip-path="url(#pe21d86925e)" style="fill: none; stroke: #e7ebeb; stroke-width: 0.8; stroke-linecap: square"/>
     </g>
     <g id="line2d_6"/>
     <g id="text_3">
      <!-- 50 -->
      <g style="fill: #9aa0a0" transform="translate(141.514758 200.066687) scale(0.11 -0.11)">
       <use xlink:href="#HelveticaNeue-35"/>
       <use xlink:href="#HelveticaNeue-30" transform="translate(55.599991 0)"/>
      </g>
     </g>
    </g>
    <g id="xtick_4">
     <g id="line2d_7">
      <path d="M 197.191199 188.712 
L 197.191199 5.76 
" clip-path="url(#pe21d86925e)" style="fill: none; stroke: #e7ebeb; stroke-width: 0.8; stroke-linecap: square"/>
     </g>
     <g id="line2d_8"/>
     <g id="text_4">
      <!-- 75 -->
      <g style="fill: #9aa0a0" transform="translate(191.075886 200.066687) scale(0.11 -0.11)">
       <defs>
        <path id="HelveticaNeue-37" d="M 3258 3994 
L 3258 4461 
L 320 4461 
L 320 3949 
L 2701 3949 
Q 2342 3571 2032 3123 
Q 1722 2675 1485 2172 
Q 1248 1670 1097 1123 
Q 947 576 909 0 
L 1517 0 
Q 1549 531 1696 1094 
Q 1843 1658 2076 2189 
Q 2310 2720 2611 3187 
Q 2912 3654 3258 3994 
z
" transform="scale(0.015625)"/>
       </defs>
       <use xlink:href="#HelveticaNeue-37"/>
       <use xlink:href="#HelveticaNeue-35" transform="translate(55.599991 0)"/>
      </g>
     </g>
    </g>
    <g id="xtick_5">
     <g id="line2d_9">
      <path d="M 246.752327 188.712 
L 246.752327 5.76 
" clip-path="url(#pe21d86925e)" style="fill: none; stroke: #e7ebeb; stroke-width: 0.8; stroke-linecap: square"/>
     </g>
     <g id="line2d_10"/>
     <g id="text_5">
      <!-- 100 -->
      <g style="fill: #9aa0a0" transform="translate(237.579358 200.066687) scale(0.11 -0.11)">
       <defs>
        <path id="HelveticaNeue-31" d="M 2278 0 
L 2278 4538 
L 1862 4538 
Q 1818 4282 1696 4115 
Q 1574 3949 1398 3853 
Q 1222 3757 1004 3721 
Q 787 3686 557 3686 
L 557 3251 
L 1734 3251 
L 1734 0 
L 2278 0 
z
" transform="scale(0.015625)"/>
       </defs>
       <use xlink:href="#HelveticaNeue-31"/>
       <use xlink:href="#HelveticaNeue-30" transform="translate(55.599991 0)"/>
       <use xlink:href="#HelveticaNeue-30" transform="translate(111.199982 0)"/>
      </g>
     </g>
    </g>
    <g id="xtick_6">
     <g id="line2d_11">
      <path d="M 296.313456 188.712 
L 296.313456 5.76 
" clip-path="url(#pe21d86925e)" style="fill: none; stroke: #e7ebeb; stroke-width: 0.8; stroke-linecap: square"/>
     </g>
     <g id="line2d_12"/>
     <g id="text_6">
      <!-- 125 -->
      <g style="fill: #9aa0a0" transform="translate(287.140487 200.066687) scale(0.11 -0.11)">
       <use xlink:href="#HelveticaNeue-31"/>
       <use xlink:href="#HelveticaNeue-32" transform="translate(55.599991 0)"/>
       <use xlink:href="#HelveticaNeue-35" transform="translate(111.199982 0)"/>
      </g>
     </g>
    </g>
    <g id="xtick_7">
     <g id="line2d_13">
      <path d="M 345.874584 188.712 
L 345.874584 5.76 
" clip-path="url(#pe21d86925e)" style="fill: none; stroke: #e7ebeb; stroke-width: 0.8; stroke-linecap: square"/>
     </g>
     <g id="line2d_14"/>
     <g id="text_7">
      <!-- 150 -->
      <g style="fill: #9aa0a0" transform="translate(336.701615 200.066687) scale(0.11 -0.11)">
       <use xlink:href="#HelveticaNeue-31"/>
       <use xlink:href="#HelveticaNeue-35" transform="translate(55.599991 0)"/>
       <use xlink:href="#HelveticaNeue-30" transform="translate(111.199982 0)"/>
      </g>
     </g>
    </g>
    <g id="xtick_8">
     <g id="line2d_15">
      <path d="M 395.435713 188.712 
L 395.435713 5.76 
" clip-path="url(#pe21d86925e)" style="fill: none; stroke: #e7ebeb; stroke-width: 0.8; stroke-linecap: square"/>
     </g>
     <g id="line2d_16"/>
     <g id="text_8">
      <!-- 175 -->
      <g style="fill: #9aa0a0" transform="translate(386.262744 200.066687) scale(0.11 -0.11)">
       <use xlink:href="#HelveticaNeue-31"/>
       <use xlink:href="#HelveticaNeue-37" transform="translate(55.599991 0)"/>
       <use xlink:href="#HelveticaNeue-35" transform="translate(111.199982 0)"/>
      </g>
     </g>
    </g>
    <g id="text_9">
     <!-- median detection delay (steps, on converged traces) -->
     <g style="fill: #1b1b1b" transform="translate(106.241875 214.274344) scale(0.11 -0.11)">
      <defs>
       <path id="HelveticaNeue-6d" d="M 410 3309 
L 410 0 
L 954 0 
L 954 2061 
Q 954 2157 1002 2301 
Q 1050 2445 1155 2579 
Q 1261 2714 1430 2810 
Q 1600 2906 1837 2906 
Q 2022 2906 2140 2851 
Q 2259 2797 2329 2697 
Q 2400 2598 2429 2464 
Q 2458 2330 2458 2170 
L 2458 0 
L 3002 0 
L 3002 2061 
Q 3002 2445 3232 2675 
Q 3462 2906 3866 2906 
Q 4064 2906 4189 2848 
Q 4314 2790 4384 2691 
Q 4454 2592 4480 2457 
Q 4506 2323 4506 2170 
L 4506 0 
L 5050 0 
L 5050 2426 
Q 5050 2682 4970 2864 
Q 4890 3046 4746 3161 
Q 4602 3277 4400 3331 
Q 4198 3386 3949 3386 
Q 3622 3386 3350 3238 
Q 3078 3091 2912 2822 
Q 2810 3130 2560 3258 
Q 2310 3386 2003 3386 
Q 1306 3386 934 2822 
L 922 2822 
L 922 3309 
L 410 3309 
z
" transform="scale(0.015625)"/>
       <path id="HelveticaNeue-65" d="M 2707 1971 
L 806 1971 
Q 819 2163 889 2332 
Q 960 2502 1081 2630 
Q 1203 2758 1372 2832 
Q 1542 2906 1754 2906 
Q 1958 2906 2128 2832 
Q 2298 2758 2422 2633 
Q 2547 2509 2620 2336 
Q 2694 2163 2707 1971 
z
M 3232 1050 
L 2694 1050 
Q 2624 723 2403 563 
Q 2182 403 1837 403 
Q 1568 403 1369 492 
Q 1171 582 1043 732 
Q 915 883 857 1078 
Q 800 1274 806 1491 
L 3283 1491 
Q 3296 1792 3229 2125 
Q 3162 2458 2986 2739 
Q 2810 3021 2518 3203 
Q 2227 3386 1786 3386 
Q 1446 3386 1161 3258 
Q 877 3130 669 2899 
Q 461 2669 345 2355 
Q 230 2042 230 1664 
Q 243 1286 342 966 
Q 442 646 640 416 
Q 838 186 1129 58 
Q 1421 -70 1818 -70 
Q 2381 -70 2752 211 
Q 3123 493 3232 1050 
z
" transform="scale(0.015625)"/>
       <path id="HelveticaNeue-64" d="M 806 1626 
Q 806 1869 857 2099 
Q 909 2330 1024 2509 
Q 1139 2688 1331 2797 
Q 1523 2906 1798 2906 
Q 2080 2906 2278 2800 
Q 2477 2694 2601 2521 
Q 2726 2349 2784 2121 
Q 2842 1894 2842 1651 
Q 2842 1421 2787 1197 
Q 2733 973 2611 797 
Q 2490 621 2298 512 
Q 2106 403 1830 403 
Q 1568 403 1373 505 
Q 1178 608 1053 781 
Q 928 954 867 1174 
Q 806 1395 806 1626 
z
M 3366 0 
L 3366 4570 
L 2822 4570 
L 2822 2867 
L 2810 2867 
Q 2720 3014 2589 3113 
Q 2458 3213 2310 3273 
Q 2163 3334 2016 3360 
Q 1869 3386 1741 3386 
Q 1363 3386 1078 3248 
Q 794 3110 605 2876 
Q 416 2643 323 2329 
Q 230 2016 230 1664 
Q 230 1312 326 998 
Q 422 685 611 448 
Q 800 211 1085 70 
Q 1370 -70 1754 -70 
Q 2099 -70 2387 51 
Q 2675 173 2810 448 
L 2822 448 
L 2822 0 
L 3366 0 
z
" transform="scale(0.015625)"/>
       <path id="HelveticaNeue-69" d="M 986 3904 
L 986 4570 
L 442 4570 
L 442 3904 
L 986 3904 
z
M 442 3309 
L 442 0 
L 986 0 
L 986 3309 
L 442 3309 
z
" transform="scale(0.015625)"/>
       <path id="HelveticaNeue-61" d="M 3341 13 
Q 3200 -70 2950 -70 
Q 2739 -70 2614 48 
Q 2490 166 2490 435 
Q 2266 166 1968 48 
Q 1670 -70 1325 -70 
Q 1101 -70 899 -19 
Q 698 32 550 141 
Q 403 250 316 426 
Q 230 602 230 851 
Q 230 1133 326 1312 
Q 422 1491 579 1603 
Q 736 1715 937 1772 
Q 1139 1830 1350 1869 
Q 1574 1914 1776 1936 
Q 1978 1958 2131 2000 
Q 2285 2042 2374 2122 
Q 2464 2202 2464 2355 
Q 2464 2534 2397 2643 
Q 2330 2752 2224 2809 
Q 2118 2867 1987 2886 
Q 1856 2906 1728 2906 
Q 1382 2906 1152 2774 
Q 922 2643 902 2278 
L 358 2278 
Q 371 2586 486 2797 
Q 602 3008 794 3139 
Q 986 3270 1232 3328 
Q 1478 3386 1760 3386 
Q 1984 3386 2205 3354 
Q 2426 3322 2605 3222 
Q 2784 3123 2893 2944 
Q 3002 2765 3002 2477 
L 3002 774 
Q 3002 582 3024 492 
Q 3046 403 3174 403 
Q 3245 403 3341 435 
L 3341 13 
z
M 2458 1709 
Q 2355 1632 2188 1597 
Q 2022 1562 1840 1539 
Q 1658 1517 1472 1488 
Q 1286 1459 1139 1395 
Q 992 1331 899 1212 
Q 806 1094 806 890 
Q 806 755 860 662 
Q 915 570 1001 512 
Q 1088 454 1203 428 
Q 1318 403 1446 403 
Q 1715 403 1907 476 
Q 2099 550 2220 662 
Q 2342 774 2400 905 
Q 2458 1037 2458 1152 
L 2458 1709 
z
" transform="scale(0.015625)"/>
       <path id="HelveticaNeue-6e" d="M 410 3309 
L 410 0 
L 954 0 
L 954 1869 
Q 954 2093 1014 2281 
Q 1075 2470 1196 2611 
Q 1318 2752 1500 2829 
Q 1683 2906 1933 2906 
Q 2246 2906 2425 2726 
Q 2605 2547 2605 2240 
L 2605 0 
L 3149 0 
L 3149 2176 
Q 3149 2445 3094 2665 
Q 3040 2886 2905 3046 
Q 2771 3206 2553 3296 
Q 2336 3386 2010 3386 
Q 1274 3386 934 2784 
L 922 2784 
L 922 3309 
L 410 3309 
z
" transform="scale(0.015625)"/>
       <path id="HelveticaNeue-20" transform="scale(0.015625)"/>
       <path id="HelveticaNeue-74" d="M 1165 3309 
L 1165 4301 
L 621 4301 
L 621 3309 
L 58 3309 
L 58 2829 
L 621 2829 
L 621 723 
Q 621 493 665 352 
Q 710 211 803 134 
Q 896 58 1046 29 
Q 1197 0 1408 0 
L 1824 0 
L 1824 480 
L 1574 480 
Q 1446 480 1366 489 
Q 1286 499 1241 531 
Q 1197 563 1181 620 
Q 1165 678 1165 774 
L 1165 2829 
L 1824 2829 
L 1824 3309 
L 1165 3309 
z
" transform="scale(0.015625)"/>
       <path id="HelveticaNeue-63" d="M 2656 2246 
L 3219 2246 
Q 3187 2541 3065 2755 
Q 2944 2970 2755 3110 
Q 2566 3251 2320 3318 
Q 2074 3386 1792 3386 
Q 1402 3386 1107 3248 
Q 813 3110 617 2870 
Q 422 2630 326 2307 
Q 230 1984 230 1613 
Q 230 1242 329 931 
Q 429 621 624 397 
Q 819 173 1110 51 
Q 1402 -70 1779 -70 
Q 2413 -70 2781 262 
Q 3149 595 3238 1210 
L 2682 1210 
Q 2630 826 2403 614 
Q 2176 403 1773 403 
Q 1517 403 1331 505 
Q 1146 608 1030 777 
Q 915 947 860 1164 
Q 806 1382 806 1613 
Q 806 1862 857 2096 
Q 909 2330 1027 2509 
Q 1146 2688 1344 2797 
Q 1542 2906 1837 2906 
Q 2182 2906 2387 2733 
Q 2592 2560 2656 2246 
z
" transform="scale(0.015625)"/>
       <path id="HelveticaNeue-6f" d="M 806 1651 
Q 806 1952 886 2185 
Q 966 2419 1107 2579 
Q 1248 2739 1437 2822 
Q 1626 2906 1837 2906 
Q 2048 2906 2237 2822 
Q 2426 2739 2566 2579 
Q 2707 2419 2787 2185 
Q 2867 1952 2867 1651 
Q 2867 1350 2787 1116 
Q 2707 883 2566 726 
Q 2426 570 2237 486 
Q 2048 403 1837 403 
Q 1626 403 1437 486 
Q 1248 570 1107 726 
Q 966 883 886 1116 
Q 806 1350 806 1651 
z
M 230 1651 
Q 230 1286 332 972 
Q 435 659 640 425 
Q 845 192 1145 61 
Q 1446 -70 1837 -70 
Q 2234 -70 2531 61 
Q 2829 192 3033 425 
Q 3238 659 3340 972 
Q 3443 1286 3443 1651 
Q 3443 2016 3340 2333 
Q 3238 2650 3033 2883 
Q 2829 3117 2531 3251 
Q 2234 3386 1837 3386 
Q 1446 3386 1145 3251 
Q 845 3117 640 2883 
Q 435 2650 332 2333 
Q 230 2016 230 1651 
z
" transform="scale(0.015625)"/>
       <path id="HelveticaNeue-6c" d="M 442 4570 
L 442 0 
L 986 0 
L 986 4570 
L 442 4570 
z
" transform="scale(0.015625)"/>
       <path id="HelveticaNeue-79" d="M 1709 -442 
Q 1613 -685 1520 -851 
Q 1427 -1018 1315 -1123 
Q 1203 -1229 1065 -1277 
Q 928 -1325 749 -1325 
Q 653 -1325 557 -1312 
Q 461 -1299 371 -1267 
L 371 -768 
Q 442 -800 534 -822 
Q 627 -845 691 -845 
Q 858 -845 970 -765 
Q 1082 -685 1139 -538 
L 1363 19 
L 51 3309 
L 666 3309 
L 1632 602 
L 1645 602 
L 2573 3309 
L 3149 3309 
L 1709 -442 
z
" transform="scale(0.015625)"/>
       <path id="HelveticaNeue-28" d="M 1306 -1261 
L 1722 -1261 
Q 1267 -525 1072 198 
Q 877 922 877 1728 
Q 877 2515 1069 3232 
Q 1261 3949 1722 4678 
L 1306 4678 
Q 806 4019 553 3251 
Q 301 2483 301 1728 
Q 301 1306 371 922 
Q 442 538 573 173 
Q 704 -192 889 -547 
Q 1075 -902 1306 -1261 
z
" transform="scale(0.015625)"/>
       <path id="HelveticaNeue-73" d="M 742 1043 
L 198 1043 
Q 211 736 326 521 
Q 442 307 634 176 
Q 826 45 1075 -12 
Q 1325 -70 1600 -70 
Q 1850 -70 2102 -22 
Q 2355 26 2556 147 
Q 2758 269 2883 467 
Q 3008 666 3008 966 
Q 3008 1203 2915 1363 
Q 2822 1523 2672 1628 
Q 2522 1734 2326 1798 
Q 2131 1862 1926 1907 
Q 1734 1952 1542 1993 
Q 1350 2035 1196 2096 
Q 1043 2157 944 2249 
Q 845 2342 845 2483 
Q 845 2611 909 2691 
Q 973 2771 1075 2819 
Q 1178 2867 1302 2886 
Q 1427 2906 1549 2906 
Q 1683 2906 1814 2877 
Q 1946 2848 2054 2784 
Q 2163 2720 2233 2614 
Q 2304 2509 2317 2349 
L 2861 2349 
Q 2842 2650 2733 2851 
Q 2624 3053 2441 3171 
Q 2259 3290 2022 3338 
Q 1786 3386 1504 3386 
Q 1286 3386 1065 3331 
Q 845 3277 669 3165 
Q 493 3053 381 2873 
Q 269 2694 269 2445 
Q 269 2125 429 1945 
Q 589 1766 829 1667 
Q 1069 1568 1350 1513 
Q 1632 1459 1872 1392 
Q 2112 1325 2272 1216 
Q 2432 1107 2432 896 
Q 2432 742 2355 643 
Q 2278 544 2160 493 
Q 2042 442 1901 422 
Q 1760 403 1632 403 
Q 1466 403 1309 435 
Q 1152 467 1027 540 
Q 902 614 825 739 
Q 749 864 742 1043 
z
" transform="scale(0.015625)"/>
       <path id="HelveticaNeue-70" d="M 429 3309 
L 429 -1261 
L 973 -1261 
L 973 442 
L 986 442 
Q 1075 294 1206 195 
Q 1338 96 1485 38 
Q 1632 -19 1782 -44 
Q 1933 -70 2054 -70 
Q 2432 -70 2717 64 
Q 3002 198 3190 432 
Q 3379 666 3472 979 
Q 3565 1293 3565 1645 
Q 3565 1997 3469 2310 
Q 3373 2624 3184 2864 
Q 2995 3104 2710 3245 
Q 2426 3386 2042 3386 
Q 1696 3386 1408 3261 
Q 1120 3136 986 2861 
L 973 2861 
L 973 3309 
L 429 3309 
z
M 2989 1683 
Q 2989 1440 2937 1209 
Q 2886 979 2771 800 
Q 2656 621 2467 512 
Q 2278 403 1997 403 
Q 1715 403 1516 508 
Q 1318 614 1193 787 
Q 1069 960 1011 1187 
Q 954 1414 954 1658 
Q 954 1888 1008 2112 
Q 1062 2336 1184 2512 
Q 1306 2688 1498 2797 
Q 1690 2906 1965 2906 
Q 2227 2906 2422 2803 
Q 2618 2701 2742 2528 
Q 2867 2355 2928 2134 
Q 2989 1914 2989 1683 
z
" transform="scale(0.015625)"/>
       <path id="HelveticaNeue-2c" d="M 531 710 
L 531 0 
L 909 0 
Q 915 -77 899 -166 
Q 883 -256 838 -342 
Q 794 -429 720 -502 
Q 646 -576 538 -614 
L 538 -934 
Q 909 -826 1075 -563 
Q 1242 -301 1242 64 
L 1242 710 
L 531 710 
z
" transform="scale(0.015625)"/>
       <path id="HelveticaNeue-76" d="M 1901 0 
L 3110 3309 
L 2541 3309 
L 1638 550 
L 1626 550 
L 698 3309 
L 90 3309 
L 1318 0 
L 1901 0 
z
" transform="scale(0.015625)"/>
       <path id="HelveticaNeue-72" d="M 390 3309 
L 390 0 
L 934 0 
L 934 1472 
Q 934 1792 998 2038 
Q 1062 2285 1203 2457 
Q 1344 2630 1574 2720 
Q 1805 2810 2131 2810 
L 2131 3386 
Q 1690 3398 1402 3206 
Q 1114 3014 915 2611 
L 902 2611 
L 902 3309 
L 390 3309 
z
" transform="scale(0.015625)"/>
       <path id="HelveticaNeue-67" d="M 3264 282 
L 3264 3309 
L 2752 3309 
L 2752 2835 
L 2746 2835 
Q 2598 3110 2336 3248 
Q 2074 3386 1760 3386 
Q 1331 3386 1036 3222 
Q 742 3059 563 2806 
Q 384 2554 307 2243 
Q 230 1933 230 1638 
Q 230 1299 323 995 
Q 416 691 601 464 
Q 787 237 1062 102 
Q 1338 -32 1709 -32 
Q 2029 -32 2313 112 
Q 2598 256 2739 563 
L 2752 563 
L 2752 346 
Q 2752 70 2697 -160 
Q 2643 -390 2521 -553 
Q 2400 -717 2214 -809 
Q 2029 -902 1760 -902 
Q 1626 -902 1478 -873 
Q 1331 -845 1206 -781 
Q 1082 -717 995 -614 
Q 909 -512 902 -365 
L 358 -365 
Q 371 -634 499 -819 
Q 627 -1005 822 -1120 
Q 1018 -1235 1258 -1286 
Q 1498 -1338 1728 -1338 
Q 2522 -1338 2893 -934 
Q 3264 -531 3264 282 
z
M 1741 442 
Q 1472 442 1293 554 
Q 1114 666 1005 848 
Q 896 1030 851 1254 
Q 806 1478 806 1702 
Q 806 1939 860 2156 
Q 915 2374 1033 2540 
Q 1152 2707 1337 2806 
Q 1523 2906 1786 2906 
Q 2042 2906 2221 2803 
Q 2400 2701 2512 2531 
Q 2624 2362 2675 2150 
Q 2726 1939 2726 1722 
Q 2726 1491 2672 1260 
Q 2618 1030 2502 848 
Q 2387 666 2198 554 
Q 2010 442 1741 442 
z
" transform="scale(0.015625)"/>
       <path id="HelveticaNeue-29" d="M -58 -1261 
L 352 -1261 
Q 851 -602 1104 163 
Q 1357 928 1357 1683 
Q 1357 2106 1286 2490 
Q 1216 2874 1085 3242 
Q 954 3610 768 3965 
Q 582 4320 352 4678 
L -58 4678 
Q 390 3942 585 3216 
Q 781 2490 781 1683 
Q 781 902 589 182 
Q 397 -538 -58 -1261 
z
" transform="scale(0.015625)"/>
      </defs>
      <use xlink:href="#HelveticaNeue-6d"/>
      <use xlink:href="#HelveticaNeue-65" transform="translate(85.299988 0)"/>
      <use xlink:href="#HelveticaNeue-64" transform="translate(138.999985 0)"/>
      <use xlink:href="#HelveticaNeue-69" transform="translate(198.299973 0)"/>
      <use xlink:href="#HelveticaNeue-61" transform="translate(220.499969 0)"/>
      <use xlink:href="#HelveticaNeue-6e" transform="translate(274.199966 0)"/>
      <use xlink:href="#HelveticaNeue-20" transform="translate(329.799957 0)"/>
      <use xlink:href="#HelveticaNeue-64" transform="translate(357.599945 0)"/>
      <use xlink:href="#HelveticaNeue-65" transform="translate(416.899933 0)"/>
      <use xlink:href="#HelveticaNeue-74" transform="translate(470.59993 0)"/>
      <use xlink:href="#HelveticaNeue-65" transform="translate(502.099915 0)"/>
      <use xlink:href="#HelveticaNeue-63" transform="translate(555.799911 0)"/>
      <use xlink:href="#HelveticaNeue-74" transform="translate(609.499908 0)"/>
      <use xlink:href="#HelveticaNeue-69" transform="translate(640.999893 0)"/>
      <use xlink:href="#HelveticaNeue-6f" transform="translate(663.19989 0)"/>
      <use xlink:href="#HelveticaNeue-6e" transform="translate(720.599884 0)"/>
      <use xlink:href="#HelveticaNeue-20" transform="translate(776.199875 0)"/>
      <use xlink:href="#HelveticaNeue-64" transform="translate(803.999863 0)"/>
      <use xlink:href="#HelveticaNeue-65" transform="translate(863.29985 0)"/>
      <use xlink:href="#HelveticaNeue-6c" transform="translate(916.999847 0)"/>
      <use xlink:href="#HelveticaNeue-61" transform="translate(939.199844 0)"/>
      <use xlink:href="#HelveticaNeue-79" transform="translate(992.899841 0)"/>
      <use xlink:href="#HelveticaNeue-20" transform="translate(1042.899826 0)"/>
      <use xlink:href="#HelveticaNeue-28" transform="translate(1070.699814 0)"/>
      <use xlink:href="#HelveticaNeue-73" transform="translate(1096.599808 0)"/>
      <use xlink:href="#HelveticaNeue-74" transform="translate(1146.599792 0)"/>
      <use xlink:href="#HelveticaNeue-65" transform="translate(1178.099777 0)"/>
      <use xlink:href="#HelveticaNeue-70" transform="translate(1231.799774 0)"/>
      <use xlink:href="#HelveticaNeue-73" transform="translate(1291.099762 0)"/>
      <use xlink:href="#HelveticaNeue-2c" transform="translate(1341.099747 0)"/>
      <use xlink:href="#HelveticaNeue-20" transform="translate(1368.899734 0)"/>
      <use xlink:href="#HelveticaNeue-6f" transform="translate(1396.699722 0)"/>
      <use xlink:href="#HelveticaNeue-6e" transform="translate(1454.099716 0)"/>
      <use xlink:href="#HelveticaNeue-20" transform="translate(1509.699707 0)"/>
      <use xlink:href="#HelveticaNeue-63" transform="translate(1537.499695 0)"/>
      <use xlink:href="#HelveticaNeue-6f" transform="translate(1591.199692 0)"/>
      <use xlink:href="#HelveticaNeue-6e" transform="translate(1648.599686 0)"/>
      <use xlink:href="#HelveticaNeue-76" transform="translate(1704.199677 0)"/>
      <use xlink:href="#HelveticaNeue-65" transform="translate(1754.199661 0)"/>
      <use xlink:href="#HelveticaNeue-72" transform="translate(1807.899658 0)"/>
      <use xlink:href="#HelveticaNeue-67" transform="translate(1838.449646 0)"/>
      <use xlink:href="#HelveticaNeue-65" transform="translate(1895.84964 0)"/>
      <use xlink:href="#HelveticaNeue-64" transform="translate(1949.549637 0)"/>
      <use xlink:href="#HelveticaNeue-20" transform="translate(2008.849625 0)"/>
      <use xlink:href="#HelveticaNeue-74" transform="translate(2036.649612 0)"/>
      <use xlink:href="#HelveticaNeue-72" transform="translate(2068.149597 0)"/>
      <use xlink:href="#HelveticaNeue-61" transform="translate(2101.449585 0)"/>
      <use xlink:href="#HelveticaNeue-63" transform="translate(2155.149582 0)"/>
      <use xlink:href="#HelveticaNeue-65" transform="translate(2208.849579 0)"/>
      <use xlink:href="#HelveticaNeue-73" transform="translate(2262.549576 0)"/>
      <use xlink:href="#HelveticaNeue-29" transform="translate(2312.549561 0)"/>
     </g>
    </g>
   </g>
   <g id="matplotlib.axis_2">
    <g id="ytick_1">
     <g id="line2d_17">
      <path d="M 45.137656 165.814458 
L 424.577656 165.814458 
" clip-path="url(#pe21d86925e)" style="fill: none; stroke: #e7ebeb; stroke-width: 0.8; stroke-linecap: square"/>
     </g>
     <g id="line2d_18"/>
     <g id="text_10">
      <!-- $\mathdefault{10^{-1}}$ -->
      <g style="fill: #9aa0a0" transform="translate(20.077656 169.741802) scale(0.11 -0.11)">
       <defs>
        <path id="HelveticaNeue-2212" d="M 307 1837 
L 307 1402 
L 3533 1402 
L 3533 1837 
L 307 1837 
z
" transform="scale(0.015625)"/>
       </defs>
       <use xlink:href="#HelveticaNeue-31" transform="translate(0 0.173438)"/>
       <use xlink:href="#HelveticaNeue-30" transform="translate(55.599991 0.173438)"/>
       <use xlink:href="#HelveticaNeue-2212" transform="translate(112.104786 36.365625) scale(0.7)"/>
       <use xlink:href="#HelveticaNeue-31" transform="translate(154.104776 36.365625) scale(0.7)"/>
      </g>
     </g>
    </g>
    <g id="ytick_2">
     <g id="line2d_19">
      <path d="M 45.137656 108.274273 
L 424.577656 108.274273 
" clip-path="url(#pe21d86925e)" style="fill: none; stroke: #e7ebeb; stroke-width: 0.8; stroke-linecap: square"/>
     </g>
     <g id="line2d_20"/>
     <g id="text_11">
      <!-- $\mathdefault{10^{0}}$ -->
      <g style="fill: #9aa0a0" transform="translate(24.697656 112.201616) scale(0.11 -0.11)">
       <use xlink:href="#HelveticaNeue-31" transform="translate(0 0.173438)"/>
       <use xlink:href="#HelveticaNeue-30" transform="translate(55.599991 0.173438)"/>
       <use xlink:href="#HelveticaNeue-30" transform="translate(112.104786 36.365625) scale(0.7)"/>
      </g>
     </g>
    </g>
    <g id="ytick_3">
     <g id="line2d_21">
      <path d="M 45.137656 50.734087 
L 424.577656 50.734087 
" clip-path="url(#pe21d86925e)" style="fill: none; stroke: #e7ebeb; stroke-width: 0.8; stroke-linecap: square"/>
     </g>
     <g id="line2d_22"/>
     <g id="text_12">
      <!-- $\mathdefault{10^{1}}$ -->
      <g style="fill: #9aa0a0" transform="translate(24.697656 54.661431) scale(0.11 -0.11)">
       <use xlink:href="#HelveticaNeue-31" transform="translate(0 0.173438)"/>
       <use xlink:href="#HelveticaNeue-30" transform="translate(55.599991 0.173438)"/>
       <use xlink:href="#HelveticaNeue-31" transform="translate(112.104786 36.365625) scale(0.7)"/>
      </g>
     </g>
    </g>
    <g id="ytick_4">
     <g id="line2d_23">
      <defs>
       <path id="mf56878ee25" d="M 0 0 
L -2 0 
" style="stroke: #9aa0a0; stroke-width: 0.6"/>
      </defs>
      <g>
       <use xlink:href="#mf56878ee25" x="45.137656" y="188.712" style="fill: #9aa0a0; stroke: #9aa0a0; stroke-width: 0.6"/>
      </g>
     </g>
    </g>
    <g id="ytick_5">
     <g id="line2d_24">
      <g>
       <use xlink:href="#mf56878ee25" x="45.137656" y="183.13578" style="fill: #9aa0a0; stroke: #9aa0a0; stroke-width: 0.6"/>
      </g>
     </g>
    </g>
    <g id="ytick_6">
     <g id="line2d_25">
      <g>
       <use xlink:href="#mf56878ee25" x="45.137656" y="178.579676" style="fill: #9aa0a0; stroke: #9aa0a0; stroke-width: 0.6"/>
      </g>
     </g>
    </g>
    <g id="ytick_7">
     <g id="line2d_26">
      <g>
       <use xlink:href="#mf56878ee25" x="45.137656" y="174.727546" style="fill: #9aa0a0; stroke: #9aa0a0; stroke-width: 0.6"/>
      </g>
     </g>
    </g>
    <g id="ytick_8">
     <g id="line2d_27">
      <g>
       <use xlink:href="#mf56878ee25" x="45.137656" y="171.390678" style="fill: #9aa0a0; stroke: #9aa0a0; stroke-width: 0.6"/>
      </g>
     </g>
    </g>
    <g id="ytick_9">
     <g id="line2d_28">
      <g>
       <use xlink:href="#mf56878ee25" x="45.137656" y="168.447353" style="fill: #9aa0a0; stroke: #9aa0a0; stroke-width: 0.6"/>
      </g>
     </g>
    </g>
    <g id="ytick_10">
     <g id="line2d_29">
      <g>
       <use xlink:href="#mf56878ee25" x="45.137656" y="148.493136" style="fill: #9aa0a0; stroke: #9aa0a0; stroke-width: 0.6"/>
      </g>
     </g>
    </g>
    <g id="ytick_11">
     <g id="line2d_30">
      <g>
       <use xlink:href="#mf56878ee25" x="45.137656" y="138.360813" style="fill: #9aa0a0; stroke: #9aa0a0; stroke-width: 0.6"/>
      </g>
     </g>
    </g>
    <g id="ytick_12">
     <g id="line2d_31">
      <g>
       <use xlink:href="#mf56878ee25" x="45.137656" y="131.171814" style="fill: #9aa0a0; stroke: #9aa0a0; stroke-width: 0.6"/>
      </g>
     </g>
    </g>
    <g id="ytick_13">
     <g id="line2d_32">
      <g>
       <use xlink:href="#mf56878ee25" x="45.137656" y="125.595594" style="fill: #9aa0a0; stroke: #9aa0a0; stroke-width: 0.6"/>
      </g>
     </g>
    </g>
    <g id="ytick_14">
     <g id="line2d_33">
      <g>
       <use xlink:href="#mf56878ee25" x="45.137656" y="121.039491" style="fill: #9aa0a0; stroke: #9aa0a0; stroke-width: 0.6"/>
      </g>
     </g>
    </g>
    <g id="ytick_15">
     <g id="line2d_34">
      <g>
       <use xlink:href="#mf56878ee25" x="45.137656" y="117.18736" style="fill: #9aa0a0; stroke: #9aa0a0; stroke-width: 0.6"/>
      </g>
     </g>
    </g>
    <g id="ytick_16">
     <g id="line2d_35">
      <g>
       <use xlink:href="#mf56878ee25" x="45.137656" y="113.850493" style="fill: #9aa0a0; stroke: #9aa0a0; stroke-width: 0.6"/>
      </g>
     </g>
    </g>
    <g id="ytick_17">
     <g id="line2d_36">
      <g>
       <use xlink:href="#mf56878ee25" x="45.137656" y="110.907167" style="fill: #9aa0a0; stroke: #9aa0a0; stroke-width: 0.6"/>
      </g>
     </g>
    </g>
    <g id="ytick_18">
     <g id="line2d_37">
      <g>
       <use xlink:href="#mf56878ee25" x="45.137656" y="90.952951" style="fill: #9aa0a0; stroke: #9aa0a0; stroke-width: 0.6"/>
      </g>
     </g>
    </g>
    <g id="ytick_19">
     <g id="line2d_38">
      <g>
       <use xlink:href="#mf56878ee25" x="45.137656" y="80.820627" style="fill: #9aa0a0; stroke: #9aa0a0; stroke-width: 0.6"/>
      </g>
     </g>
    </g>
    <g id="ytick_20">
     <g id="line2d_39">
      <g>
       <use xlink:href="#mf56878ee25" x="45.137656" y="73.631629" style="fill: #9aa0a0; stroke: #9aa0a0; stroke-width: 0.6"/>
      </g>
     </g>
    </g>
    <g id="ytick_21">
     <g id="line2d_40">
      <g>
       <use xlink:href="#mf56878ee25" x="45.137656" y="68.055409" style="fill: #9aa0a0; stroke: #9aa0a0; stroke-width: 0.6"/>
      </g>
     </g>
    </g>
    <g id="ytick_22">
     <g id="line2d_41">
      <g>
       <use xlink:href="#mf56878ee25" x="45.137656" y="63.499305" style="fill: #9aa0a0; stroke: #9aa0a0; stroke-width: 0.6"/>
      </g>
     </g>
    </g>
    <g id="ytick_23">
     <g id="line2d_42">
      <g>
       <use xlink:href="#mf56878ee25" x="45.137656" y="59.647175" style="fill: #9aa0a0; stroke: #9aa0a0; stroke-width: 0.6"/>
      </g>
     </g>
    </g>
    <g id="ytick_24">
     <g id="line2d_43">
      <g>
       <use xlink:href="#mf56878ee25" x="45.137656" y="56.310307" style="fill: #9aa0a0; stroke: #9aa0a0; stroke-width: 0.6"/>
      </g>
     </g>
    </g>
    <g id="ytick_25">
     <g id="line2d_44">
      <g>
       <use xlink:href="#mf56878ee25" x="45.137656" y="53.366981" style="fill: #9aa0a0; stroke: #9aa0a0; stroke-width: 0.6"/>
      </g>
     </g>
    </g>
    <g id="ytick_26">
     <g id="line2d_45">
      <g>
       <use xlink:href="#mf56878ee25" x="45.137656" y="33.412765" style="fill: #9aa0a0; stroke: #9aa0a0; stroke-width: 0.6"/>
      </g>
     </g>
    </g>
    <g id="ytick_27">
     <g id="line2d_46">
      <g>
       <use xlink:href="#mf56878ee25" x="45.137656" y="23.280441" style="fill: #9aa0a0; stroke: #9aa0a0; stroke-width: 0.6"/>
      </g>
     </g>
    </g>
    <g id="ytick_28">
     <g id="line2d_47">
      <g>
       <use xlink:href="#mf56878ee25" x="45.137656" y="16.091443" style="fill: #9aa0a0; stroke: #9aa0a0; stroke-width: 0.6"/>
      </g>
     </g>
    </g>
    <g id="ytick_29">
     <g id="line2d_48">
      <g>
       <use xlink:href="#mf56878ee25" x="45.137656" y="10.515223" style="fill: #9aa0a0; stroke: #9aa0a0; stroke-width: 0.6"/>
      </g>
     </g>
    </g>
    <g id="ytick_30">
     <g id="line2d_49">
      <g>
       <use xlink:href="#mf56878ee25" x="45.137656" y="5.95912" style="fill: #9aa0a0; stroke: #9aa0a0; stroke-width: 0.6"/>
      </g>
     </g>
    </g>
    <g id="text_13">
     <!-- worst-family false-stop rate (%) -->
     <g style="fill: #1b1b1b" transform="translate(13.800313 174.435375) rotate(-90) scale(0.11 -0.11)">
      <defs>
       <path id="HelveticaNeue-77" d="M 3686 0 
L 4742 3309 
L 4179 3309 
L 3437 602 
L 3424 602 
L 2733 3309 
L 2138 3309 
L 1472 602 
L 1459 602 
L 710 3309 
L 109 3309 
L 1171 0 
L 1760 0 
L 2426 2630 
L 2438 2630 
L 3110 0 
L 3686 0 
z
" transform="scale(0.015625)"/>
       <path id="HelveticaNeue-2d" d="M 320 2035 
L 320 1523 
L 2170 1523 
L 2170 2035 
L 320 2035 
z
" transform="scale(0.015625)"/>
       <path id="HelveticaNeue-66" d="M 634 2829 
L 634 0 
L 1178 0 
L 1178 2829 
L 1818 2829 
L 1818 3309 
L 1178 3309 
L 1178 3770 
Q 1178 3987 1286 4064 
Q 1395 4141 1594 4141 
Q 1664 4141 1747 4131 
Q 1830 4122 1901 4096 
L 1901 4570 
Q 1824 4595 1725 4608 
Q 1626 4621 1549 4621 
Q 1101 4621 867 4413 
Q 634 4205 634 3802 
L 634 3309 
L 77 3309 
L 77 2829 
L 634 2829 
z
" transform="scale(0.015625)"/>
       <path id="HelveticaNeue-25" d="M 1069 3251 
Q 1069 3398 1088 3561 
Q 1107 3725 1168 3862 
Q 1229 4000 1337 4093 
Q 1446 4186 1626 4186 
Q 1811 4186 1916 4093 
Q 2022 4000 2080 3862 
Q 2138 3725 2154 3561 
Q 2170 3398 2170 3258 
Q 2170 3110 2150 2944 
Q 2131 2778 2070 2640 
Q 2010 2502 1901 2412 
Q 1792 2323 1606 2323 
Q 1427 2323 1321 2416 
Q 1216 2509 1158 2646 
Q 1101 2784 1085 2947 
Q 1069 3110 1069 3251 
z
M 589 3238 
Q 589 2976 643 2745 
Q 698 2515 819 2342 
Q 941 2170 1139 2070 
Q 1338 1971 1626 1971 
Q 1907 1971 2099 2080 
Q 2291 2189 2416 2365 
Q 2541 2541 2595 2774 
Q 2650 3008 2650 3258 
Q 2650 3520 2602 3753 
Q 2554 3987 2435 4160 
Q 2317 4333 2121 4435 
Q 1926 4538 1626 4538 
Q 1331 4538 1132 4432 
Q 934 4326 812 4147 
Q 691 3968 640 3734 
Q 589 3501 589 3238 
z
M 4230 1203 
Q 4230 1350 4249 1513 
Q 4269 1677 4329 1814 
Q 4390 1952 4499 2045 
Q 4608 2138 4787 2138 
Q 4973 2138 5078 2045 
Q 5184 1952 5241 1814 
Q 5299 1677 5315 1513 
Q 5331 1350 5331 1210 
Q 5331 1062 5312 896 
Q 5293 730 5232 592 
Q 5171 454 5062 364 
Q 4954 275 4768 275 
Q 4589 275 4483 368 
Q 4378 461 4320 598 
Q 4262 736 4246 899 
Q 4230 1062 4230 1203 
z
M 3750 1190 
Q 3750 928 3804 697 
Q 3859 467 3980 297 
Q 4102 128 4300 29 
Q 4499 -70 4787 -70 
Q 5069 -70 5261 35 
Q 5453 141 5577 317 
Q 5702 493 5756 726 
Q 5811 960 5811 1210 
Q 5811 1472 5763 1705 
Q 5715 1939 5596 2112 
Q 5478 2285 5283 2387 
Q 5088 2490 4787 2490 
Q 4493 2490 4294 2384 
Q 4096 2278 3974 2099 
Q 3853 1920 3801 1686 
Q 3750 1453 3750 1190 
z
M 4646 4621 
L 1203 -134 
L 1754 -134 
L 5190 4621 
L 4646 4621 
z
" transform="scale(0.015625)"/>
      </defs>
      <use xlink:href="#HelveticaNeue-77"/>
      <use xlink:href="#HelveticaNeue-6f" transform="translate(75.799988 0)"/>
      <use xlink:href="#HelveticaNeue-72" transform="translate(133.199982 0)"/>
      <use xlink:href="#HelveticaNeue-73" transform="translate(166.499969 0)"/>
      <use xlink:href="#HelveticaNeue-74" transform="translate(216.499954 0)"/>
      <use xlink:href="#HelveticaNeue-2d" transform="translate(247.999939 0)"/>
      <use xlink:href="#HelveticaNeue-66" transform="translate(286.899933 0)"/>
      <use xlink:href="#HelveticaNeue-61" transform="translate(316.499924 0)"/>
      <use xlink:href="#HelveticaNeue-6d" transform="translate(370.199921 0)"/>
      <use xlink:href="#HelveticaNeue-69" transform="translate(455.499908 0)"/>
      <use xlink:href="#HelveticaNeue-6c" transform="translate(477.699905 0)"/>
      <use xlink:href="#HelveticaNeue-79" transform="translate(499.899902 0)"/>
      <use xlink:href="#HelveticaNeue-20" transform="translate(549.899887 0)"/>
      <use xlink:href="#HelveticaNeue-66" transform="translate(577.699875 0)"/>
      <use xlink:href="#HelveticaNeue-61" transform="translate(607.299866 0)"/>
      <use xlink:href="#HelveticaNeue-6c" transform="translate(660.999863 0)"/>
      <use xlink:href="#HelveticaNeue-73" transform="translate(683.19986 0)"/>
      <use xlink:href="#HelveticaNeue-65" transform="translate(733.199844 0)"/>
      <use xlink:href="#HelveticaNeue-2d" transform="translate(786.899841 0)"/>
      <use xlink:href="#HelveticaNeue-73" transform="translate(825.799835 0)"/>
      <use xlink:href="#HelveticaNeue-74" transform="translate(875.79982 0)"/>
      <use xlink:href="#HelveticaNeue-6f" transform="translate(907.299805 0)"/>
      <use xlink:href="#HelveticaNeue-70" transform="translate(964.699799 0)"/>
      <use xlink:href="#HelveticaNeue-20" transform="translate(1023.999786 0)"/>
      <use xlink:href="#HelveticaNeue-72" transform="translate(1051.799774 0)"/>
      <use xlink:href="#HelveticaNeue-61" transform="translate(1085.099762 0)"/>
      <use xlink:href="#HelveticaNeue-74" transform="translate(1138.799759 0)"/>
      <use xlink:href="#HelveticaNeue-65" transform="translate(1170.299744 0)"/>
      <use xlink:href="#HelveticaNeue-20" transform="translate(1223.999741 0)"/>
      <use xlink:href="#HelveticaNeue-28" transform="translate(1251.799728 0)"/>
      <use xlink:href="#HelveticaNeue-25" transform="translate(1277.699722 0)"/>
      <use xlink:href="#HelveticaNeue-29" transform="translate(1377.699707 0)"/>
     </g>
    </g>
   </g>
   <g id="line2d_50">
    <path d="M 62.384929 17.505102 
L 68.332264 21.745878 
L 70.31471 22.380563 
L 74.2796 37.91894 
L 74.2796 23.197282 
L 78.24449 24.562229 
L 82.20938 44.761202 
L 82.20938 25.820954 
L 88.156716 49.514851 
L 88.156716 50.485434 
L 92.121606 53.366981 
L 100.051387 58.943202 
L 100.051387 57.923085 
L 100.051387 56.942984 
L 107.981167 64.781093 
L 109.963612 62.679908 
L 111.946058 70.688303 
L 117.893393 76.968496 
L 119.875838 66.1322 
L 121.858283 83.453522 
L 123.840728 71.249886 
L 133.752954 89.733715 
L 133.752954 87.460386 
L 137.717844 95.014199 
L 139.700289 71.82438 
L 147.63007 103.718169 
L 155.559851 101.717951 
L 157.542296 105.89253 
L 165.472076 121.039491 
L 165.472076 113.850493 
L 183.314083 131.171814 
L 185.296528 121.039491 
L 193.226308 148.493136 
L 199.173644 121.039491 
L 215.033205 165.814458 
L 224.945431 138.360813 
L 234.857656 165.814458 
L 256.664553 165.814458 
L 264.594333 165.814458 
L 316.137907 183.13578 
L 316.137907 165.814458 
L 407.330384 183.13578 
" clip-path="url(#pe21d86925e)" style="fill: none; stroke: #cbd5d3; stroke-width: 1.2; stroke-linecap: square"/>
   </g>
   <g id="line2d_51">
    <path d="M 45.137656 68.055409 
L 424.577656 68.055409 
" clip-path="url(#pe21d86925e)" style="fill: none; stroke-dasharray: 3.7,1.6; stroke-dashoffset: 0; stroke: #9aa0a0"/>
   </g>
   <g id="patch_3">
    <path d="M 45.137656 188.712 
L 45.137656 5.76 
" style="fill: none; stroke: #c8cfcf; stroke-width: 0.9; stroke-linejoin: miter; stroke-linecap: square"/>
   </g>
   <g id="patch_4">
    <path d="M 45.137656 188.712 
L 424.577656 188.712 
" style="fill: none; stroke: #c8cfcf; stroke-width: 0.9; stroke-linejoin: miter; stroke-linecap: square"/>
   </g>
   <g id="PathCollection_1">
    <defs>
     <path id="m75ac4dcfcf" d="M 0 3.082207 
C 0.817411 3.082207 1.601453 2.757446 2.179449 2.179449 
C 2.757446 1.601453 3.082207 0.817411 3.082207 0 
C 3.082207 -0.817411 2.757446 -1.601453 2.179449 -2.179449 
C 1.601453 -2.757446 0.817411 -3.082207 0 -3.082207 
C -0.817411 -3.082207 -1.601453 -2.757446 -2.179449 -2.179449 
C -2.757446 -1.601453 -3.082207 -0.817411 -3.082207 0 
C -3.082207 0.817411 -2.757446 1.601453 -2.179449 2.179449 
C -1.601453 2.757446 -0.817411 3.082207 0 3.082207 
z
" style="stroke: #ffffff; stroke-width: 0.6"/>
    </defs>
    <g clip-path="url(#pe21d86925e)">
     <use xlink:href="#m75ac4dcfcf" x="62.384929" y="17.505102" style="fill: #0f766e; stroke: #ffffff; stroke-width: 0.6"/>
     <use xlink:href="#m75ac4dcfcf" x="68.332264" y="21.745878" style="fill: #0f766e; stroke: #ffffff; stroke-width: 0.6"/>
     <use xlink:href="#m75ac4dcfcf" x="70.31471" y="22.380563" style="fill: #0f766e; stroke: #ffffff; stroke-width: 0.6"/>
     <use xlink:href="#m75ac4dcfcf" x="74.2796" y="37.91894" style="fill: #0f766e; stroke: #ffffff; stroke-width: 0.6"/>
     <use xlink:href="#m75ac4dcfcf" x="74.2796" y="23.197282" style="fill: #0f766e; stroke: #ffffff; stroke-width: 0.6"/>
     <use xlink:href="#m75ac4dcfcf" x="78.24449" y="24.562229" style="fill: #0f766e; stroke: #ffffff; stroke-width: 0.6"/>
     <use xlink:href="#m75ac4dcfcf" x="82.20938" y="44.761202" style="fill: #0f766e; stroke: #ffffff; stroke-width: 0.6"/>
     <use xlink:href="#m75ac4dcfcf" x="82.20938" y="25.820954" style="fill: #0f766e; stroke: #ffffff; stroke-width: 0.6"/>
     <use xlink:href="#m75ac4dcfcf" x="88.156716" y="50.485434" style="fill: #0f766e; stroke: #ffffff; stroke-width: 0.6"/>
     <use xlink:href="#m75ac4dcfcf" x="88.156716" y="49.514851" style="fill: #0f766e; stroke: #ffffff; stroke-width: 0.6"/>
     <use xlink:href="#m75ac4dcfcf" x="92.121606" y="53.366981" style="fill: #0f766e; stroke: #ffffff; stroke-width: 0.6"/>
     <use xlink:href="#m75ac4dcfcf" x="100.051387" y="58.943202" style="fill: #0f766e; stroke: #ffffff; stroke-width: 0.6"/>
     <use xlink:href="#m75ac4dcfcf" x="100.051387" y="57.923085" style="fill: #0f766e; stroke: #ffffff; stroke-width: 0.6"/>
     <use xlink:href="#m75ac4dcfcf" x="100.051387" y="56.942984" style="fill: #0f766e; stroke: #ffffff; stroke-width: 0.6"/>
     <use xlink:href="#m75ac4dcfcf" x="107.981167" y="64.781093" style="fill: #0f766e; stroke: #ffffff; stroke-width: 0.6"/>
     <use xlink:href="#m75ac4dcfcf" x="109.963612" y="62.679908" style="fill: #0f766e; stroke: #ffffff; stroke-width: 0.6"/>
     <use xlink:href="#m75ac4dcfcf" x="111.946058" y="70.688303" style="fill: #0f766e; stroke: #ffffff; stroke-width: 0.6"/>
     <use xlink:href="#m75ac4dcfcf" x="117.893393" y="76.968496" style="fill: #0f766e; stroke: #ffffff; stroke-width: 0.6"/>
     <use xlink:href="#m75ac4dcfcf" x="119.875838" y="66.1322" style="fill: #0f766e; stroke: #ffffff; stroke-width: 0.6"/>
     <use xlink:href="#m75ac4dcfcf" x="121.858283" y="83.453522" style="fill: #0f766e; stroke: #ffffff; stroke-width: 0.6"/>
     <use xlink:href="#m75ac4dcfcf" x="123.840728" y="71.249886" style="fill: #0f766e; stroke: #ffffff; stroke-width: 0.6"/>
     <use xlink:href="#m75ac4dcfcf" x="133.752954" y="89.733715" style="fill: #0f766e; stroke: #ffffff; stroke-width: 0.6"/>
     <use xlink:href="#m75ac4dcfcf" x="133.752954" y="87.460386" style="fill: #0f766e; stroke: #ffffff; stroke-width: 0.6"/>
     <use xlink:href="#m75ac4dcfcf" x="137.717844" y="95.014199" style="fill: #0f766e; stroke: #ffffff; stroke-width: 0.6"/>
     <use xlink:href="#m75ac4dcfcf" x="139.700289" y="71.82438" style="fill: #0f766e; stroke: #ffffff; stroke-width: 0.6"/>
     <use xlink:href="#m75ac4dcfcf" x="147.63007" y="103.718169" style="fill: #0f766e; stroke: #ffffff; stroke-width: 0.6"/>
     <use xlink:href="#m75ac4dcfcf" x="155.559851" y="101.717951" style="fill: #0f766e; stroke: #ffffff; stroke-width: 0.6"/>
     <use xlink:href="#m75ac4dcfcf" x="157.542296" y="105.89253" style="fill: #0f766e; stroke: #ffffff; stroke-width: 0.6"/>
     <use xlink:href="#m75ac4dcfcf" x="165.472076" y="121.039491" style="fill: #0f766e; stroke: #ffffff; stroke-width: 0.6"/>
     <use xlink:href="#m75ac4dcfcf" x="165.472076" y="113.850493" style="fill: #0f766e; stroke: #ffffff; stroke-width: 0.6"/>
     <use xlink:href="#m75ac4dcfcf" x="183.314083" y="131.171814" style="fill: #0f766e; stroke: #ffffff; stroke-width: 0.6"/>
     <use xlink:href="#m75ac4dcfcf" x="185.296528" y="121.039491" style="fill: #0f766e; stroke: #ffffff; stroke-width: 0.6"/>
     <use xlink:href="#m75ac4dcfcf" x="193.226308" y="148.493136" style="fill: #0f766e; stroke: #ffffff; stroke-width: 0.6"/>
     <use xlink:href="#m75ac4dcfcf" x="199.173644" y="121.039491" style="fill: #0f766e; stroke: #ffffff; stroke-width: 0.6"/>
     <use xlink:href="#m75ac4dcfcf" x="215.033205" y="165.814458" style="fill: #0f766e; stroke: #ffffff; stroke-width: 0.6"/>
     <use xlink:href="#m75ac4dcfcf" x="224.945431" y="138.360813" style="fill: #0f766e; stroke: #ffffff; stroke-width: 0.6"/>
     <use xlink:href="#m75ac4dcfcf" x="234.857656" y="165.814458" style="fill: #0f766e; stroke: #ffffff; stroke-width: 0.6"/>
     <use xlink:href="#m75ac4dcfcf" x="256.664553" y="165.814458" style="fill: #0f766e; stroke: #ffffff; stroke-width: 0.6"/>
     <use xlink:href="#m75ac4dcfcf" x="264.594333" y="165.814458" style="fill: #0f766e; stroke: #ffffff; stroke-width: 0.6"/>
     <use xlink:href="#m75ac4dcfcf" x="316.137907" y="183.13578" style="fill: #0f766e; stroke: #ffffff; stroke-width: 0.6"/>
     <use xlink:href="#m75ac4dcfcf" x="316.137907" y="165.814458" style="fill: #0f766e; stroke: #ffffff; stroke-width: 0.6"/>
     <use xlink:href="#m75ac4dcfcf" x="407.330384" y="183.13578" style="fill: #0f766e; stroke: #ffffff; stroke-width: 0.6"/>
    </g>
   </g>
   <g id="text_14">
    <!-- 5% budget -->
    <g style="fill: #9aa0a0" transform="translate(362.313509 64.781093) scale(0.09 -0.09)">
     <defs>
      <path id="HelveticaNeue-62" d="M 429 4570 
L 429 0 
L 973 0 
L 973 442 
L 986 442 
Q 1075 294 1206 195 
Q 1338 96 1485 38 
Q 1632 -19 1782 -44 
Q 1933 -70 2054 -70 
Q 2432 -70 2717 64 
Q 3002 198 3190 432 
Q 3379 666 3472 979 
Q 3565 1293 3565 1645 
Q 3565 1997 3469 2310 
Q 3373 2624 3184 2864 
Q 2995 3104 2710 3245 
Q 2426 3386 2042 3386 
Q 1696 3386 1408 3261 
Q 1120 3136 986 2861 
L 973 2861 
L 973 4570 
L 429 4570 
z
M 2989 1683 
Q 2989 1440 2937 1209 
Q 2886 979 2771 800 
Q 2656 621 2467 512 
Q 2278 403 1997 403 
Q 1715 403 1516 508 
Q 1318 614 1193 787 
Q 1069 960 1011 1187 
Q 954 1414 954 1658 
Q 954 1888 1008 2112 
Q 1062 2336 1184 2512 
Q 1306 2688 1498 2797 
Q 1690 2906 1965 2906 
Q 2227 2906 2422 2803 
Q 2618 2701 2742 2528 
Q 2867 2355 2928 2134 
Q 2989 1914 2989 1683 
z
" transform="scale(0.015625)"/>
      <path id="HelveticaNeue-75" d="M 3149 0 
L 3149 3309 
L 2605 3309 
L 2605 1440 
Q 2605 1216 2544 1027 
Q 2483 838 2361 697 
Q 2240 557 2057 480 
Q 1875 403 1626 403 
Q 1312 403 1133 582 
Q 954 762 954 1069 
L 954 3309 
L 410 3309 
L 410 1133 
Q 410 864 464 643 
Q 518 422 652 262 
Q 787 102 1004 16 
Q 1222 -70 1549 -70 
Q 1914 -70 2182 74 
Q 2451 218 2624 525 
L 2637 525 
L 2637 0 
L 3149 0 
z
" transform="scale(0.015625)"/>
     </defs>
     <use xlink:href="#HelveticaNeue-35"/>
     <use xlink:href="#HelveticaNeue-25" transform="translate(55.599991 0)"/>
     <use xlink:href="#HelveticaNeue-20" transform="translate(155.599976 0)"/>
     <use xlink:href="#HelveticaNeue-62" transform="translate(183.399963 0)"/>
     <use xlink:href="#HelveticaNeue-75" transform="translate(242.699951 0)"/>
     <use xlink:href="#HelveticaNeue-64" transform="translate(298.299942 0)"/>
     <use xlink:href="#HelveticaNeue-67" transform="translate(357.59993 0)"/>
     <use xlink:href="#HelveticaNeue-65" transform="translate(414.999924 0)"/>
     <use xlink:href="#HelveticaNeue-74" transform="translate(468.699921 0)"/>
    </g>
   </g>
   <g id="patch_5">
    <path d="M 237.299525 47.818159 
Q 211.87649 83.614336 187.295056 118.22552 
" style="fill: none; stroke: #c99a2e; stroke-width: 1.3; stroke-linecap: round"/>
    <path d="M 190.847137 116.332712 
L 187.295056 118.22552 
L 187.912058 114.248171 
" style="fill: none; stroke: #c99a2e; stroke-width: 1.3; stroke-linecap: round"/>
   </g>
   <g id="text_15">
    <!-- frozen default  κ=0.25, h=20 -->
    <g style="fill: #8a6a12" transform="translate(193.226308 23.179478) scale(0.09 -0.09)">
     <defs>
      <path id="HelveticaNeue-7a" d="M 141 416 
L 141 0 
L 2931 0 
L 2931 480 
L 819 480 
L 2842 2938 
L 2842 3309 
L 269 3309 
L 269 2829 
L 2138 2829 
L 141 416 
z
" transform="scale(0.015625)"/>
      <path id="HelveticaNeue-3ba" d="M 410 3309 
L 954 3309 
L 954 1779 
L 2464 3309 
L 3194 3309 
L 1856 2035 
L 3290 0 
L 2598 0 
L 1459 1645 
L 954 1165 
L 954 0 
L 410 0 
L 410 3309 
z
" transform="scale(0.015625)"/>
      <path id="HelveticaNeue-3d" d="M 307 1190 
L 307 755 
L 3533 755 
L 3533 1190 
L 307 1190 
z
M 3533 2048 
L 3533 2483 
L 307 2483 
L 307 2048 
L 3533 2048 
z
" transform="scale(0.015625)"/>
      <path id="HelveticaNeue-2e" d="M 531 710 
L 531 0 
L 1242 0 
L 1242 710 
L 531 710 
z
" transform="scale(0.015625)"/>
      <path id="HelveticaNeue-68" d="M 410 4570 
L 410 0 
L 954 0 
L 954 1869 
Q 954 2093 1014 2281 
Q 1075 2470 1196 2611 
Q 1318 2752 1500 2829 
Q 1683 2906 1933 2906 
Q 2246 2906 2425 2726 
Q 2605 2547 2605 2240 
L 2605 0 
L 3149 0 
L 3149 2176 
Q 3149 2445 3094 2665 
Q 3040 2886 2905 3046 
Q 2771 3206 2553 3296 
Q 2336 3386 2010 3386 
Q 1862 3386 1705 3354 
Q 1549 3322 1405 3254 
Q 1261 3187 1145 3081 
Q 1030 2976 966 2822 
L 954 2822 
L 954 4570 
L 410 4570 
z
" transform="scale(0.015625)"/>
     </defs>
     <use xlink:href="#HelveticaNeue-66"/>
     <use xlink:href="#HelveticaNeue-72" transform="translate(29.599991 0)"/>
     <use xlink:href="#HelveticaNeue-6f" transform="translate(61.149979 0)"/>
     <use xlink:href="#HelveticaNeue-7a" transform="translate(118.549973 0)"/>
     <use xlink:href="#HelveticaNeue-65" transform="translate(166.549957 0)"/>
     <use xlink:href="#HelveticaNeue-6e" transform="translate(220.249954 0)"/>
     <use xlink:href="#HelveticaNeue-20" transform="translate(275.849945 0)"/>
     <use xlink:href="#HelveticaNeue-64" transform="translate(303.649933 0)"/>
     <use xlink:href="#HelveticaNeue-65" transform="translate(362.949921 0)"/>
     <use xlink:href="#HelveticaNeue-66" transform="translate(416.649918 0)"/>
     <use xlink:href="#HelveticaNeue-61" transform="translate(446.249908 0)"/>
     <use xlink:href="#HelveticaNeue-75" transform="translate(499.949905 0)"/>
     <use xlink:href="#HelveticaNeue-6c" transform="translate(555.549896 0)"/>
     <use xlink:href="#HelveticaNeue-74" transform="translate(577.749893 0)"/>
     <use xlink:href="#HelveticaNeue-20" transform="translate(609.249878 0)"/>
     <use xlink:href="#HelveticaNeue-20" transform="translate(637.049866 0)"/>
     <use xlink:href="#HelveticaNeue-3ba" transform="translate(664.849854 0)"/>
     <use xlink:href="#HelveticaNeue-3d" transform="translate(716.249847 0)"/>
     <use xlink:href="#HelveticaNeue-30" transform="translate(776.249832 0)"/>
     <use xlink:href="#HelveticaNeue-2e" transform="translate(831.849823 0)"/>
     <use xlink:href="#HelveticaNeue-32" transform="translate(859.649811 0)"/>
     <use xlink:href="#HelveticaNeue-35" transform="translate(915.249802 0)"/>
     <use xlink:href="#HelveticaNeue-2c" transform="translate(970.849792 0)"/>
     <use xlink:href="#HelveticaNeue-20" transform="translate(998.64978 0)"/>
     <use xlink:href="#HelveticaNeue-68" transform="translate(1026.449768 0)"/>
     <use xlink:href="#HelveticaNeue-3d" transform="translate(1082.049759 0)"/>
     <use xlink:href="#HelveticaNeue-32" transform="translate(1142.049744 0)"/>
     <use xlink:href="#HelveticaNeue-30" transform="translate(1197.649734 0)"/>
    </g>
    <!-- 0.6% worst-family FPR -->
    <g style="fill: #8a6a12" transform="translate(193.226308 32.750696) scale(0.09 -0.09)">
     <defs>
      <path id="HelveticaNeue-36" d="M 2650 3379 
L 3194 3379 
Q 3142 3942 2809 4240 
Q 2477 4538 1914 4538 
Q 1427 4538 1107 4333 
Q 787 4128 595 3789 
Q 403 3450 323 3011 
Q 243 2573 243 2106 
Q 243 1747 297 1363 
Q 352 979 518 659 
Q 685 339 992 134 
Q 1299 -70 1805 -70 
Q 2234 -70 2525 74 
Q 2816 218 2992 438 
Q 3168 659 3245 928 
Q 3322 1197 3322 1446 
Q 3322 1760 3226 2029 
Q 3130 2298 2954 2496 
Q 2778 2694 2518 2806 
Q 2259 2918 1933 2918 
Q 1562 2918 1277 2777 
Q 992 2637 800 2323 
L 787 2336 
Q 794 2598 838 2899 
Q 883 3200 1001 3459 
Q 1120 3718 1331 3888 
Q 1542 4058 1888 4058 
Q 2214 4058 2412 3872 
Q 2611 3686 2650 3379 
z
M 1830 2438 
Q 2061 2438 2233 2355 
Q 2406 2272 2521 2134 
Q 2637 1997 2691 1808 
Q 2746 1619 2746 1408 
Q 2746 1210 2685 1027 
Q 2624 845 2509 704 
Q 2394 563 2224 483 
Q 2054 403 1830 403 
Q 1606 403 1430 483 
Q 1254 563 1136 697 
Q 1018 832 954 1017 
Q 890 1203 890 1414 
Q 890 1626 950 1814 
Q 1011 2003 1132 2140 
Q 1254 2278 1427 2358 
Q 1600 2438 1830 2438 
z
" transform="scale(0.015625)"/>
      <path id="HelveticaNeue-46" d="M 499 4570 
L 499 0 
L 1107 0 
L 1107 2093 
L 3206 2093 
L 3206 2605 
L 1107 2605 
L 1107 4058 
L 3501 4058 
L 3501 4570 
L 499 4570 
z
" transform="scale(0.015625)"/>
      <path id="HelveticaNeue-50" d="M 1107 2381 
L 1107 4058 
L 2298 4058 
Q 2816 4058 3056 3843 
Q 3296 3629 3296 3219 
Q 3296 2810 3056 2592 
Q 2816 2374 2298 2381 
L 1107 2381 
z
M 499 4570 
L 499 0 
L 1107 0 
L 1107 1869 
L 2502 1869 
Q 3194 1862 3549 2220 
Q 3904 2579 3904 3219 
Q 3904 3859 3549 4214 
Q 3194 4570 2502 4570 
L 499 4570 
z
" transform="scale(0.015625)"/>
      <path id="HelveticaNeue-52" d="M 499 4570 
L 499 0 
L 1107 0 
L 1107 1952 
L 2592 1952 
Q 2816 1952 2950 1885 
Q 3085 1818 3168 1706 
Q 3251 1594 3289 1443 
Q 3328 1293 3354 1126 
Q 3386 960 3392 787 
Q 3398 614 3404 464 
Q 3411 314 3433 192 
Q 3456 70 3520 0 
L 4198 0 
Q 4102 115 4054 265 
Q 4006 416 3980 582 
Q 3955 749 3948 921 
Q 3942 1094 3930 1261 
Q 3910 1427 3875 1580 
Q 3840 1734 3766 1859 
Q 3693 1984 3568 2073 
Q 3443 2163 3245 2202 
L 3245 2214 
Q 3661 2330 3849 2643 
Q 4038 2957 4038 3373 
Q 4038 3930 3670 4250 
Q 3302 4570 2650 4570 
L 499 4570 
z
M 2374 2464 
L 1107 2464 
L 1107 4058 
L 2618 4058 
Q 3046 4058 3238 3840 
Q 3430 3622 3430 3277 
Q 3430 3027 3344 2870 
Q 3258 2714 3114 2621 
Q 2970 2528 2778 2496 
Q 2586 2464 2374 2464 
z
" transform="scale(0.015625)"/>
     </defs>
     <use xlink:href="#HelveticaNeue-30"/>
     <use xlink:href="#HelveticaNeue-2e" transform="translate(55.599991 0)"/>
     <use xlink:href="#HelveticaNeue-36" transform="translate(83.399979 0)"/>
     <use xlink:href="#HelveticaNeue-25" transform="translate(138.999969 0)"/>
     <use xlink:href="#HelveticaNeue-20" transform="translate(238.999954 0)"/>
     <use xlink:href="#HelveticaNeue-77" transform="translate(266.799942 0)"/>
     <use xlink:href="#HelveticaNeue-6f" transform="translate(342.59993 0)"/>
     <use xlink:href="#HelveticaNeue-72" transform="translate(399.999924 0)"/>
     <use xlink:href="#HelveticaNeue-73" transform="translate(433.299911 0)"/>
     <use xlink:href="#HelveticaNeue-74" transform="translate(483.299896 0)"/>
     <use xlink:href="#HelveticaNeue-2d" transform="translate(514.799881 0)"/>
     <use xlink:href="#HelveticaNeue-66" transform="translate(553.699875 0)"/>
     <use xlink:href="#HelveticaNeue-61" transform="translate(583.299866 0)"/>
     <use xlink:href="#HelveticaNeue-6d" transform="translate(636.999863 0)"/>
     <use xlink:href="#HelveticaNeue-69" transform="translate(722.29985 0)"/>
     <use xlink:href="#HelveticaNeue-6c" transform="translate(744.499847 0)"/>
     <use xlink:href="#HelveticaNeue-79" transform="translate(766.699844 0)"/>
     <use xlink:href="#HelveticaNeue-20" transform="translate(816.699829 0)"/>
     <use xlink:href="#HelveticaNeue-46" transform="translate(844.499817 0)"/>
     <use xlink:href="#HelveticaNeue-50" transform="translate(901.899811 0)"/>
     <use xlink:href="#HelveticaNeue-52" transform="translate(966.699799 0)"/>
    </g>
    <!-- ~69-step delay -->
    <g style="fill: #8a6a12" transform="translate(193.226308 42.325853) scale(0.09 -0.09)">
     <defs>
      <path id="HelveticaNeue-7e" d="M 3514 2368 
Q 3437 2234 3347 2109 
Q 3258 1984 3149 1885 
Q 3040 1786 2905 1725 
Q 2771 1664 2598 1664 
Q 2400 1664 2217 1741 
Q 2035 1818 1865 1907 
Q 1696 1997 1533 2073 
Q 1370 2150 1210 2150 
Q 1005 2150 867 1993 
Q 730 1837 653 1664 
L 307 1971 
Q 365 2099 448 2227 
Q 531 2355 646 2454 
Q 762 2554 909 2614 
Q 1056 2675 1242 2675 
Q 1414 2675 1596 2598 
Q 1779 2522 1955 2432 
Q 2131 2342 2297 2265 
Q 2464 2189 2605 2189 
Q 2701 2189 2781 2233 
Q 2861 2278 2928 2348 
Q 2995 2419 3052 2505 
Q 3110 2592 3168 2675 
L 3514 2368 
L 3514 2368 
z
" transform="scale(0.015625)"/>
      <path id="HelveticaNeue-39" d="M 858 1094 
L 314 1094 
Q 365 506 742 218 
Q 1120 -70 1690 -70 
Q 2515 -70 2889 560 
Q 3264 1190 3264 2368 
Q 3264 3014 3139 3433 
Q 3014 3853 2803 4096 
Q 2592 4339 2310 4438 
Q 2029 4538 1709 4538 
Q 1382 4538 1107 4429 
Q 832 4320 633 4125 
Q 435 3930 326 3658 
Q 218 3386 218 3059 
Q 218 2726 310 2444 
Q 403 2163 585 1964 
Q 768 1766 1037 1654 
Q 1306 1542 1651 1542 
Q 1984 1542 2265 1712 
Q 2547 1882 2701 2170 
L 2714 2157 
Q 2688 1267 2438 835 
Q 2189 403 1690 403 
Q 1363 403 1126 582 
Q 890 762 858 1094 
z
M 2618 3021 
Q 2618 2822 2554 2640 
Q 2490 2458 2368 2320 
Q 2246 2182 2073 2102 
Q 1901 2022 1690 2022 
Q 1491 2022 1328 2102 
Q 1165 2182 1046 2316 
Q 928 2451 861 2624 
Q 794 2797 794 2982 
Q 794 3194 842 3386 
Q 890 3578 995 3728 
Q 1101 3878 1270 3968 
Q 1440 4058 1683 4058 
Q 1914 4058 2086 3974 
Q 2259 3891 2377 3747 
Q 2496 3603 2557 3417 
Q 2618 3232 2618 3021 
z
" transform="scale(0.015625)"/>
     </defs>
     <use xlink:href="#HelveticaNeue-7e"/>
     <use xlink:href="#HelveticaNeue-36" transform="translate(59.999985 0)"/>
     <use xlink:href="#HelveticaNeue-39" transform="translate(115.599976 0)"/>
     <use xlink:href="#HelveticaNeue-2d" transform="translate(171.199966 0)"/>
     <use xlink:href="#HelveticaNeue-73" transform="translate(210.09996 0)"/>
     <use xlink:href="#HelveticaNeue-74" transform="translate(260.099945 0)"/>
     <use xlink:href="#HelveticaNeue-65" transform="translate(291.59993 0)"/>
     <use xlink:href="#HelveticaNeue-70" transform="translate(345.299927 0)"/>
     <use xlink:href="#HelveticaNeue-20" transform="translate(404.599915 0)"/>
     <use xlink:href="#HelveticaNeue-64" transform="translate(432.399902 0)"/>
     <use xlink:href="#HelveticaNeue-65" transform="translate(491.69989 0)"/>
     <use xlink:href="#HelveticaNeue-6c" transform="translate(545.399887 0)"/>
     <use xlink:href="#HelveticaNeue-61" transform="translate(567.599884 0)"/>
     <use xlink:href="#HelveticaNeue-79" transform="translate(621.299881 0)"/>
    </g>
   </g>
   <g id="PathCollection_2">
    <path d="M 185.296528 127.163215 
C 186.920558 127.163215 188.478292 126.517981 189.626655 125.369618 
C 190.775018 124.221255 191.420252 122.663521 191.420252 121.039491 
C 191.420252 119.41546 190.775018 117.857727 189.626655 116.709364 
C 188.478292 115.561001 186.920558 114.915766 185.296528 114.915766 
C 183.672497 114.915766 182.114764 115.561001 180.966401 116.709364 
C 179.818038 117.857727 179.172803 119.41546 179.172803 121.039491 
C 179.172803 122.663521 179.818038 124.221255 180.966401 125.369618 
C 182.114764 126.517981 183.672497 127.163215 185.296528 127.163215 
L 185.296528 127.163215 
z
" clip-path="url(#pe21d86925e)" style="fill: none; stroke: #c99a2e; stroke-width: 2.4"/>
   </g>
  </g>
 </g>
 <defs>
  <clipPath id="pe21d86925e">
   <rect x="45.137656" y="5.76" width="379.44" height="182.952"/>
  </clipPath>
 </defs>
</svg>
