<?xml version="1.0" encoding="utf-8" standalone="no"?>
<!DOCTYPE svg PUBLIC "-//W3C//DTD SVG 1.1//EN"
  "http://www.w3.org/Graphics/SVG/1.1/DTD/svg11.dtd">
<svg xmlns:xlink="http://www.w3.org/1999/xlink" width="466.423281pt" height="210.928063pt" viewBox="0 0 466.423281 210.928063" xmlns="http://www.w3.org/2000/svg" version="1.1">
 <metadata>
  <rdf:RDF xmlns:dc="http://purl.org/dc/elements/1.1/" xmlns:cc="http://creativecommons.org/ns#" xmlns:rdf="http://www.w3.org/1999/02/22-rdf-syntax-ns#">
   <cc:Work>
    <dc:type rdf:resource="http://purl.org/dc/dcmitype/StillImage"/>
    <dc:date>2026-07-13T16:39:21.639901</dc:date>
    <dc:format>image/svg+xml</dc:format>
    <dc:creator>
     <cc:Agent>
      <dc:title>Matplotlib v3.10.9, https://matplotlib.org/</dc:title>
     </cc:Agent>
    </dc:creator>
   </cc:Work>
  </rdf:RDF>
 </metadata>
 <defs>
  <style type="text/css">*{stroke-linejoin: round; stroke-linecap: butt}</style>
 </defs>
 <g id="figure_1">
  <g id="patch_1">
   <path d="M 0 210.928063 
L 466.423281 210.928063 
L 466.423281 0 
L 0 0 
z
" style="fill: #ffffff"/>
  </g>
  <g id="axes_1">
   <g id="patch_2">
    <path d="M 47.743281 177.624 
L 460.663281 177.624 
L 460.663281 5.76 
L 47.743281 5.76 
z
" style="fill: #ffffff"/>
   </g>
   <g id="matplotlib.axis_1">
    <g id="xtick_1">
     <g id="line2d_1">
      <path d="M 66.512372 177.624 
L 66.512372 5.76 
" clip-path="url(#pa2ab190cb0)" style="fill: none; stroke: #e7ebeb; stroke-width: 0.8; stroke-linecap: square"/>
     </g>
     <g id="line2d_2"/>
     <g id="text_1">
      <!-- 0 -->
      <g style="fill: #9aa0a0" transform="translate(63.454716 188.978688) scale(0.11 -0.11)">
       <defs>
        <path id="HelveticaNeue-30" d="M 845 2234 
Q 845 2400 848 2601 
Q 851 2803 880 3004 
Q 909 3206 963 3398 
Q 1018 3590 1123 3734 
Q 1229 3878 1389 3968 
Q 1549 4058 1779 4058 
Q 2010 4058 2170 3968 
Q 2330 3878 2435 3734 
Q 2541 3590 2595 3398 
Q 2650 3206 2678 3004 
Q 2707 2803 2710 2601 
Q 2714 2400 2714 2234 
Q 2714 1978 2698 1661 
Q 2682 1344 2595 1065 
Q 2509 787 2317 595 
Q 2125 403 1779 403 
Q 1434 403 1242 595 
Q 1050 787 963 1065 
Q 877 1344 861 1661 
Q 845 1978 845 2234 
z
M 269 2227 
Q 269 1978 281 1709 
Q 294 1440 345 1184 
Q 397 928 493 701 
Q 589 474 755 301 
Q 922 128 1174 29 
Q 1427 -70 1779 -70 
Q 2138 -70 2387 29 
Q 2637 128 2803 301 
Q 2970 474 3066 701 
Q 3162 928 3213 1184 
Q 3264 1440 3277 1709 
Q 3290 1978 3290 2227 
Q 3290 2477 3277 2745 
Q 3264 3014 3213 3270 
Q 3162 3526 3066 3756 
Q 2970 3987 2803 4160 
Q 2637 4333 2384 4435 
Q 2131 4538 1779 4538 
Q 1427 4538 1174 4435 
Q 922 4333 755 4160 
Q 589 3987 493 3756 
Q 397 3526 345 3270 
Q 294 3014 281 2745 
Q 269 2477 269 2227 
z
" transform="scale(0.015625)"/>
       </defs>
       <use xlink:href="#HelveticaNeue-30"/>
      </g>
     </g>
    </g>
    <g id="xtick_2">
     <g id="line2d_3">
      <path d="M 125.349648 177.624 
L 125.349648 5.76 
" clip-path="url(#pa2ab190cb0)" style="fill: none; stroke: #e7ebeb; stroke-width: 0.8; stroke-linecap: square"/>
     </g>
     <g id="line2d_4"/>
     <g id="text_2">
      <!-- 50 -->
      <g style="fill: #9aa0a0" transform="translate(119.234335 188.978688) scale(0.11 -0.11)">
       <defs>
        <path id="HelveticaNeue-35" d="M 3008 3981 
L 3008 4461 
L 768 4461 
L 346 2106 
L 813 2080 
Q 973 2272 1181 2390 
Q 1389 2509 1658 2509 
Q 1888 2509 2077 2432 
Q 2266 2355 2400 2217 
Q 2534 2080 2608 1891 
Q 2682 1702 2682 1478 
Q 2682 1210 2605 1008 
Q 2528 806 2397 672 
Q 2266 538 2090 470 
Q 1914 403 1722 403 
Q 1517 403 1347 464 
Q 1178 525 1053 637 
Q 928 749 854 899 
Q 781 1050 768 1222 
L 224 1222 
Q 230 915 345 672 
Q 461 429 659 265 
Q 858 102 1117 16 
Q 1376 -70 1670 -70 
Q 2067 -70 2364 54 
Q 2662 179 2860 390 
Q 3059 602 3158 874 
Q 3258 1146 3258 1434 
Q 3258 1824 3142 2115 
Q 3027 2406 2828 2601 
Q 2630 2797 2361 2893 
Q 2093 2989 1792 2989 
Q 1562 2989 1328 2909 
Q 1094 2829 947 2662 
L 934 2675 
L 1178 3981 
L 3008 3981 
z
" transform="scale(0.015625)"/>
       </defs>
       <use xlink:href="#HelveticaNeue-35"/>
       <use xlink:href="#HelveticaNeue-30" transform="translate(55.599991 0)"/>
      </g>
     </g>
    </g>
    <g id="xtick_3">
     <g id="line2d_5">
      <path d="M 184.186923 177.624 
L 184.186923 5.76 
" clip-path="url(#pa2ab190cb0)" style="fill: none; stroke: #e7ebeb; stroke-width: 0.8; stroke-linecap: square"/>
     </g>
     <g id="line2d_6"/>
     <g id="text_3">
      <!-- 100 -->
      <g style="fill: #9aa0a0" transform="translate(175.013955 188.978688) scale(0.11 -0.11)">
       <defs>
        <path id="HelveticaNeue-31" d="M 2278 0 
L 2278 4538 
L 1862 4538 
Q 1818 4282 1696 4115 
Q 1574 3949 1398 3853 
Q 1222 3757 1004 3721 
Q 787 3686 557 3686 
L 557 3251 
L 1734 3251 
L 1734 0 
L 2278 0 
z
" transform="scale(0.015625)"/>
       </defs>
       <use xlink:href="#HelveticaNeue-31"/>
       <use xlink:href="#HelveticaNeue-30" transform="translate(55.599991 0)"/>
       <use xlink:href="#HelveticaNeue-30" transform="translate(111.199982 0)"/>
      </g>
     </g>
    </g>
    <g id="xtick_4">
     <g id="line2d_7">
      <path d="M 243.024199 177.624 
L 243.024199 5.76 
" clip-path="url(#pa2ab190cb0)" style="fill: none; stroke: #e7ebeb; stroke-width: 0.8; stroke-linecap: square"/>
     </g>
     <g id="line2d_8"/>
     <g id="text_4">
      <!-- 150 -->
      <g style="fill: #9aa0a0" transform="translate(233.85123 188.978688) scale(0.11 -0.11)">
       <use xlink:href="#HelveticaNeue-31"/>
       <use xlink:href="#HelveticaNeue-35" transform="translate(55.599991 0)"/>
       <use xlink:href="#HelveticaNeue-30" transform="translate(111.199982 0)"/>
      </g>
     </g>
    </g>
    <g id="xtick_5">
     <g id="line2d_9">
      <path d="M 301.861474 177.624 
L 301.861474 5.76 
" clip-path="url(#pa2ab190cb0)" style="fill: none; stroke: #e7ebeb; stroke-width: 0.8; stroke-linecap: square"/>
     </g>
     <g id="line2d_10"/>
     <g id="text_5">
      <!-- 200 -->
      <g style="fill: #9aa0a0" transform="translate(292.688506 188.978688) scale(0.11 -0.11)">
       <defs>
        <path id="HelveticaNeue-32" d="M 282 2931 
L 826 2931 
Q 819 3136 867 3337 
Q 915 3539 1024 3699 
Q 1133 3859 1302 3958 
Q 1472 4058 1709 4058 
Q 1888 4058 2048 4000 
Q 2208 3942 2326 3833 
Q 2445 3725 2515 3574 
Q 2586 3424 2586 3238 
Q 2586 3002 2512 2822 
Q 2438 2643 2294 2489 
Q 2150 2336 1932 2185 
Q 1715 2035 1427 1856 
Q 1190 1715 972 1555 
Q 755 1395 582 1184 
Q 410 973 298 688 
Q 186 403 154 0 
L 3117 0 
L 3117 480 
L 787 480 
Q 826 691 950 854 
Q 1075 1018 1251 1158 
Q 1427 1299 1638 1424 
Q 1850 1549 2061 1677 
Q 2272 1811 2470 1958 
Q 2669 2106 2822 2288 
Q 2976 2470 3069 2700 
Q 3162 2931 3162 3232 
Q 3162 3552 3050 3795 
Q 2938 4038 2746 4201 
Q 2554 4365 2294 4451 
Q 2035 4538 1741 4538 
Q 1382 4538 1100 4416 
Q 819 4294 630 4080 
Q 442 3866 352 3571 
Q 262 3277 282 2931 
z
" transform="scale(0.015625)"/>
       </defs>
       <use xlink:href="#HelveticaNeue-32"/>
       <use xlink:href="#HelveticaNeue-30" transform="translate(55.599991 0)"/>
       <use xlink:href="#HelveticaNeue-30" transform="translate(111.199982 0)"/>
      </g>
     </g>
    </g>
    <g id="xtick_6">
     <g id="line2d_11">
      <path d="M 360.69875 177.624 
L 360.69875 5.76 
" clip-path="url(#pa2ab190cb0)" style="fill: none; stroke: #e7ebeb; stroke-width: 0.8; stroke-linecap: square"/>
     </g>
     <g id="line2d_12"/>
     <g id="text_6">
      <!-- 250 -->
      <g style="fill: #9aa0a0" transform="translate(351.525781 188.978688) scale(0.11 -0.11)">
       <use xlink:href="#HelveticaNeue-32"/>
       <use xlink:href="#HelveticaNeue-35" transform="translate(55.599991 0)"/>
       <use xlink:href="#HelveticaNeue-30" transform="translate(111.199982 0)"/>
      </g>
     </g>
    </g>
    <g id="xtick_7">
     <g id="line2d_13">
      <path d="M 419.536026 177.624 
L 419.536026 5.76 
" clip-path="url(#pa2ab190cb0)" style="fill: none; stroke: #e7ebeb; stroke-width: 0.8; stroke-linecap: square"/>
     </g>
     <g id="line2d_14"/>
     <g id="text_7">
      <!-- 300 -->
      <g style="fill: #9aa0a0" transform="translate(410.363057 188.978688) scale(0.11 -0.11)">
       <defs>
        <path id="HelveticaNeue-33" d="M 1395 2592 
L 1395 2131 
Q 1549 2150 1722 2150 
Q 1926 2150 2102 2096 
Q 2278 2042 2406 1930 
Q 2534 1818 2611 1654 
Q 2688 1491 2688 1280 
Q 2688 1075 2608 912 
Q 2528 749 2393 637 
Q 2259 525 2080 464 
Q 1901 403 1702 403 
Q 1235 403 992 681 
Q 749 960 736 1402 
L 192 1402 
Q 186 1050 291 774 
Q 397 499 595 310 
Q 794 122 1075 26 
Q 1357 -70 1702 -70 
Q 2022 -70 2307 16 
Q 2592 102 2803 275 
Q 3014 448 3139 707 
Q 3264 966 3264 1306 
Q 3264 1715 3062 2016 
Q 2861 2317 2445 2406 
L 2445 2419 
Q 2714 2541 2893 2777 
Q 3072 3014 3072 3322 
Q 3072 3635 2966 3865 
Q 2861 4096 2675 4243 
Q 2490 4390 2237 4464 
Q 1984 4538 1690 4538 
Q 1350 4538 1091 4429 
Q 832 4320 659 4128 
Q 486 3936 393 3667 
Q 301 3398 288 3072 
L 832 3072 
Q 832 3270 883 3449 
Q 934 3629 1040 3763 
Q 1146 3898 1309 3978 
Q 1472 4058 1690 4058 
Q 2035 4058 2265 3875 
Q 2496 3693 2496 3328 
Q 2496 3149 2425 3008 
Q 2355 2867 2236 2774 
Q 2118 2682 1961 2634 
Q 1805 2586 1632 2586 
L 1517 2586 
Q 1485 2586 1453 2586 
Q 1427 2586 1395 2592 
z
" transform="scale(0.015625)"/>
       </defs>
       <use xlink:href="#HelveticaNeue-33"/>
       <use xlink:href="#HelveticaNeue-30" transform="translate(55.599991 0)"/>
       <use xlink:href="#HelveticaNeue-30" transform="translate(111.199982 0)"/>
      </g>
     </g>
    </g>
    <g id="text_8">
     <!-- optimization step -->
     <g style="fill: #1b1b1b" transform="translate(211.929766 203.000719) scale(0.11 -0.11)">
      <defs>
       <path id="HelveticaNeue-6f" d="M 806 1651 
Q 806 1952 886 2185 
Q 966 2419 1107 2579 
Q 1248 2739 1437 2822 
Q 1626 2906 1837 2906 
Q 2048 2906 2237 2822 
Q 2426 2739 2566 2579 
Q 2707 2419 2787 2185 
Q 2867 1952 2867 1651 
Q 2867 1350 2787 1116 
Q 2707 883 2566 726 
Q 2426 570 2237 486 
Q 2048 403 1837 403 
Q 1626 403 1437 486 
Q 1248 570 1107 726 
Q 966 883 886 1116 
Q 806 1350 806 1651 
z
M 230 1651 
Q 230 1286 332 972 
Q 435 659 640 425 
Q 845 192 1145 61 
Q 1446 -70 1837 -70 
Q 2234 -70 2531 61 
Q 2829 192 3033 425 
Q 3238 659 3340 972 
Q 3443 1286 3443 1651 
Q 3443 2016 3340 2333 
Q 3238 2650 3033 2883 
Q 2829 3117 2531 3251 
Q 2234 3386 1837 3386 
Q 1446 3386 1145 3251 
Q 845 3117 640 2883 
Q 435 2650 332 2333 
Q 230 2016 230 1651 
z
" transform="scale(0.015625)"/>
       <path id="HelveticaNeue-70" d="M 429 3309 
L 429 -1261 
L 973 -1261 
L 973 442 
L 986 442 
Q 1075 294 1206 195 
Q 1338 96 1485 38 
Q 1632 -19 1782 -44 
Q 1933 -70 2054 -70 
Q 2432 -70 2717 64 
Q 3002 198 3190 432 
Q 3379 666 3472 979 
Q 3565 1293 3565 1645 
Q 3565 1997 3469 2310 
Q 3373 2624 3184 2864 
Q 2995 3104 2710 3245 
Q 2426 3386 2042 3386 
Q 1696 3386 1408 3261 
Q 1120 3136 986 2861 
L 973 2861 
L 973 3309 
L 429 3309 
z
M 2989 1683 
Q 2989 1440 2937 1209 
Q 2886 979 2771 800 
Q 2656 621 2467 512 
Q 2278 403 1997 403 
Q 1715 403 1516 508 
Q 1318 614 1193 787 
Q 1069 960 1011 1187 
Q 954 1414 954 1658 
Q 954 1888 1008 2112 
Q 1062 2336 1184 2512 
Q 1306 2688 1498 2797 
Q 1690 2906 1965 2906 
Q 2227 2906 2422 2803 
Q 2618 2701 2742 2528 
Q 2867 2355 2928 2134 
Q 2989 1914 2989 1683 
z
" transform="scale(0.015625)"/>
       <path id="HelveticaNeue-74" d="M 1165 3309 
L 1165 4301 
L 621 4301 
L 621 3309 
L 58 3309 
L 58 2829 
L 621 2829 
L 621 723 
Q 621 493 665 352 
Q 710 211 803 134 
Q 896 58 1046 29 
Q 1197 0 1408 0 
L 1824 0 
L 1824 480 
L 1574 480 
Q 1446 480 1366 489 
Q 1286 499 1241 531 
Q 1197 563 1181 620 
Q 1165 678 1165 774 
L 1165 2829 
L 1824 2829 
L 1824 3309 
L 1165 3309 
z
" transform="scale(0.015625)"/>
       <path id="HelveticaNeue-69" d="M 986 3904 
L 986 4570 
L 442 4570 
L 442 3904 
L 986 3904 
z
M 442 3309 
L 442 0 
L 986 0 
L 986 3309 
L 442 3309 
z
" transform="scale(0.015625)"/>
       <path id="HelveticaNeue-6d" d="M 410 3309 
L 410 0 
L 954 0 
L 954 2061 
Q 954 2157 1002 2301 
Q 1050 2445 1155 2579 
Q 1261 2714 1430 2810 
Q 1600 2906 1837 2906 
Q 2022 2906 2140 2851 
Q 2259 2797 2329 2697 
Q 2400 2598 2429 2464 
Q 2458 2330 2458 2170 
L 2458 0 
L 3002 0 
L 3002 2061 
Q 3002 2445 3232 2675 
Q 3462 2906 3866 2906 
Q 4064 2906 4189 2848 
Q 4314 2790 4384 2691 
Q 4454 2592 4480 2457 
Q 4506 2323 4506 2170 
L 4506 0 
L 5050 0 
L 5050 2426 
Q 5050 2682 4970 2864 
Q 4890 3046 4746 3161 
Q 4602 3277 4400 3331 
Q 4198 3386 3949 3386 
Q 3622 3386 3350 3238 
Q 3078 3091 2912 2822 
Q 2810 3130 2560 3258 
Q 2310 3386 2003 3386 
Q 1306 3386 934 2822 
L 922 2822 
L 922 3309 
L 410 3309 
z
" transform="scale(0.015625)"/>
       <path id="HelveticaNeue-7a" d="M 141 416 
L 141 0 
L 2931 0 
L 2931 480 
L 819 480 
L 2842 2938 
L 2842 3309 
L 269 3309 
L 269 2829 
L 2138 2829 
L 141 416 
z
" transform="scale(0.015625)"/>
       <path id="HelveticaNeue-61" d="M 3341 13 
Q 3200 -70 2950 -70 
Q 2739 -70 2614 48 
Q 2490 166 2490 435 
Q 2266 166 1968 48 
Q 1670 -70 1325 -70 
Q 1101 -70 899 -19 
Q 698 32 550 141 
Q 403 250 316 426 
Q 230 602 230 851 
Q 230 1133 326 1312 
Q 422 1491 579 1603 
Q 736 1715 937 1772 
Q 1139 1830 1350 1869 
Q 1574 1914 1776 1936 
Q 1978 1958 2131 2000 
Q 2285 2042 2374 2122 
Q 2464 2202 2464 2355 
Q 2464 2534 2397 2643 
Q 2330 2752 2224 2809 
Q 2118 2867 1987 2886 
Q 1856 2906 1728 2906 
Q 1382 2906 1152 2774 
Q 922 2643 902 2278 
L 358 2278 
Q 371 2586 486 2797 
Q 602 3008 794 3139 
Q 986 3270 1232 3328 
Q 1478 3386 1760 3386 
Q 1984 3386 2205 3354 
Q 2426 3322 2605 3222 
Q 2784 3123 2893 2944 
Q 3002 2765 3002 2477 
L 3002 774 
Q 3002 582 3024 492 
Q 3046 403 3174 403 
Q 3245 403 3341 435 
L 3341 13 
z
M 2458 1709 
Q 2355 1632 2188 1597 
Q 2022 1562 1840 1539 
Q 1658 1517 1472 1488 
Q 1286 1459 1139 1395 
Q 992 1331 899 1212 
Q 806 1094 806 890 
Q 806 755 860 662 
Q 915 570 1001 512 
Q 1088 454 1203 428 
Q 1318 403 1446 403 
Q 1715 403 1907 476 
Q 2099 550 2220 662 
Q 2342 774 2400 905 
Q 2458 1037 2458 1152 
L 2458 1709 
z
" transform="scale(0.015625)"/>
       <path id="HelveticaNeue-6e" d="M 410 3309 
L 410 0 
L 954 0 
L 954 1869 
Q 954 2093 1014 2281 
Q 1075 2470 1196 2611 
Q 1318 2752 1500 2829 
Q 1683 2906 1933 2906 
Q 2246 2906 2425 2726 
Q 2605 2547 2605 2240 
L 2605 0 
L 3149 0 
L 3149 2176 
Q 3149 2445 3094 2665 
Q 3040 2886 2905 3046 
Q 2771 3206 2553 3296 
Q 2336 3386 2010 3386 
Q 1274 3386 934 2784 
L 922 2784 
L 922 3309 
L 410 3309 
z
" transform="scale(0.015625)"/>
       <path id="HelveticaNeue-20" transform="scale(0.015625)"/>
       <path id="HelveticaNeue-73" d="M 742 1043 
L 198 1043 
Q 211 736 326 521 
Q 442 307 634 176 
Q 826 45 1075 -12 
Q 1325 -70 1600 -70 
Q 1850 -70 2102 -22 
Q 2355 26 2556 147 
Q 2758 269 2883 467 
Q 3008 666 3008 966 
Q 3008 1203 2915 1363 
Q 2822 1523 2672 1628 
Q 2522 1734 2326 1798 
Q 2131 1862 1926 1907 
Q 1734 1952 1542 1993 
Q 1350 2035 1196 2096 
Q 1043 2157 944 2249 
Q 845 2342 845 2483 
Q 845 2611 909 2691 
Q 973 2771 1075 2819 
Q 1178 2867 1302 2886 
Q 1427 2906 1549 2906 
Q 1683 2906 1814 2877 
Q 1946 2848 2054 2784 
Q 2163 2720 2233 2614 
Q 2304 2509 2317 2349 
L 2861 2349 
Q 2842 2650 2733 2851 
Q 2624 3053 2441 3171 
Q 2259 3290 2022 3338 
Q 1786 3386 1504 3386 
Q 1286 3386 1065 3331 
Q 845 3277 669 3165 
Q 493 3053 381 2873 
Q 269 2694 269 2445 
Q 269 2125 429 1945 
Q 589 1766 829 1667 
Q 1069 1568 1350 1513 
Q 1632 1459 1872 1392 
Q 2112 1325 2272 1216 
Q 2432 1107 2432 896 
Q 2432 742 2355 643 
Q 2278 544 2160 493 
Q 2042 442 1901 422 
Q 1760 403 1632 403 
Q 1466 403 1309 435 
Q 1152 467 1027 540 
Q 902 614 825 739 
Q 749 864 742 1043 
z
" transform="scale(0.015625)"/>
       <path id="HelveticaNeue-65" d="M 2707 1971 
L 806 1971 
Q 819 2163 889 2332 
Q 960 2502 1081 2630 
Q 1203 2758 1372 2832 
Q 1542 2906 1754 2906 
Q 1958 2906 2128 2832 
Q 2298 2758 2422 2633 
Q 2547 2509 2620 2336 
Q 2694 2163 2707 1971 
z
M 3232 1050 
L 2694 1050 
Q 2624 723 2403 563 
Q 2182 403 1837 403 
Q 1568 403 1369 492 
Q 1171 582 1043 732 
Q 915 883 857 1078 
Q 800 1274 806 1491 
L 3283 1491 
Q 3296 1792 3229 2125 
Q 3162 2458 2986 2739 
Q 2810 3021 2518 3203 
Q 2227 3386 1786 3386 
Q 1446 3386 1161 3258 
Q 877 3130 669 2899 
Q 461 2669 345 2355 
Q 230 2042 230 1664 
Q 243 1286 342 966 
Q 442 646 640 416 
Q 838 186 1129 58 
Q 1421 -70 1818 -70 
Q 2381 -70 2752 211 
Q 3123 493 3232 1050 
z
" transform="scale(0.015625)"/>
      </defs>
      <use xlink:href="#HelveticaNeue-6f"/>
      <use xlink:href="#HelveticaNeue-70" transform="translate(57.399994 0)"/>
      <use xlink:href="#HelveticaNeue-74" transform="translate(116.699982 0)"/>
      <use xlink:href="#HelveticaNeue-69" transform="translate(148.199966 0)"/>
      <use xlink:href="#HelveticaNeue-6d" transform="translate(170.399963 0)"/>
      <use xlink:href="#HelveticaNeue-69" transform="translate(255.699951 0)"/>
      <use xlink:href="#HelveticaNeue-7a" transform="translate(277.899948 0)"/>
      <use xlink:href="#HelveticaNeue-61" transform="translate(325.899933 0)"/>
      <use xlink:href="#HelveticaNeue-74" transform="translate(379.59993 0)"/>
      <use xlink:href="#HelveticaNeue-69" transform="translate(411.099915 0)"/>
      <use xlink:href="#HelveticaNeue-6f" transform="translate(433.299911 0)"/>
      <use xlink:href="#HelveticaNeue-6e" transform="translate(490.699905 0)"/>
      <use xlink:href="#HelveticaNeue-20" transform="translate(546.299896 0)"/>
      <use xlink:href="#HelveticaNeue-73" transform="translate(574.099884 0)"/>
      <use xlink:href="#HelveticaNeue-74" transform="translate(624.099869 0)"/>
      <use xlink:href="#HelveticaNeue-65" transform="translate(655.599854 0)"/>
      <use xlink:href="#HelveticaNeue-70" transform="translate(709.29985 0)"/>
     </g>
    </g>
   </g>
   <g id="matplotlib.axis_2">
    <g id="ytick_1">
     <g id="line2d_15">
      <path d="M 47.743281 173.497011 
L 460.663281 173.497011 
" clip-path="url(#pa2ab190cb0)" style="fill: none; stroke: #e7ebeb; stroke-width: 0.8; stroke-linecap: square"/>
     </g>
     <g id="line2d_16"/>
     <g id="text_9">
      <!-- 900 -->
      <g style="fill: #9aa0a0" transform="translate(25.897344 177.424354) scale(0.11 -0.11)">
       <defs>
        <path id="HelveticaNeue-39" d="M 858 1094 
L 314 1094 
Q 365 506 742 218 
Q 1120 -70 1690 -70 
Q 2515 -70 2889 560 
Q 3264 1190 3264 2368 
Q 3264 3014 3139 3433 
Q 3014 3853 2803 4096 
Q 2592 4339 2310 4438 
Q 2029 4538 1709 4538 
Q 1382 4538 1107 4429 
Q 832 4320 633 4125 
Q 435 3930 326 3658 
Q 218 3386 218 3059 
Q 218 2726 310 2444 
Q 403 2163 585 1964 
Q 768 1766 1037 1654 
Q 1306 1542 1651 1542 
Q 1984 1542 2265 1712 
Q 2547 1882 2701 2170 
L 2714 2157 
Q 2688 1267 2438 835 
Q 2189 403 1690 403 
Q 1363 403 1126 582 
Q 890 762 858 1094 
z
M 2618 3021 
Q 2618 2822 2554 2640 
Q 2490 2458 2368 2320 
Q 2246 2182 2073 2102 
Q 1901 2022 1690 2022 
Q 1491 2022 1328 2102 
Q 1165 2182 1046 2316 
Q 928 2451 861 2624 
Q 794 2797 794 2982 
Q 794 3194 842 3386 
Q 890 3578 995 3728 
Q 1101 3878 1270 3968 
Q 1440 4058 1683 4058 
Q 1914 4058 2086 3974 
Q 2259 3891 2377 3747 
Q 2496 3603 2557 3417 
Q 2618 3232 2618 3021 
z
" transform="scale(0.015625)"/>
       </defs>
       <use xlink:href="#HelveticaNeue-39"/>
       <use xlink:href="#HelveticaNeue-30" transform="translate(55.599991 0)"/>
       <use xlink:href="#HelveticaNeue-30" transform="translate(111.199982 0)"/>
      </g>
     </g>
    </g>
    <g id="ytick_2">
     <g id="line2d_17">
      <path d="M 47.743281 141.513189 
L 460.663281 141.513189 
" clip-path="url(#pa2ab190cb0)" style="fill: none; stroke: #e7ebeb; stroke-width: 0.8; stroke-linecap: square"/>
     </g>
     <g id="line2d_18"/>
     <g id="text_10">
      <!-- 920 -->
      <g style="fill: #9aa0a0" transform="translate(25.897344 145.440533) scale(0.11 -0.11)">
       <use xlink:href="#HelveticaNeue-39"/>
       <use xlink:href="#HelveticaNeue-32" transform="translate(55.599991 0)"/>
       <use xlink:href="#HelveticaNeue-30" transform="translate(111.199982 0)"/>
      </g>
     </g>
    </g>
    <g id="ytick_3">
     <g id="line2d_19">
      <path d="M 47.743281 109.529367 
L 460.663281 109.529367 
" clip-path="url(#pa2ab190cb0)" style="fill: none; stroke: #e7ebeb; stroke-width: 0.8; stroke-linecap: square"/>
     </g>
     <g id="line2d_20"/>
     <g id="text_11">
      <!-- 940 -->
      <g style="fill: #9aa0a0" transform="translate(25.897344 113.456711) scale(0.11 -0.11)">
       <defs>
        <path id="HelveticaNeue-34" d="M 2170 1542 
L 646 1542 
L 2157 3763 
L 2170 3763 
L 2170 1542 
z
M 2682 1542 
L 2682 4538 
L 2246 4538 
L 179 1587 
L 179 1062 
L 2170 1062 
L 2170 0 
L 2682 0 
L 2682 1062 
L 3296 1062 
L 3296 1542 
L 2682 1542 
z
" transform="scale(0.015625)"/>
       </defs>
       <use xlink:href="#HelveticaNeue-39"/>
       <use xlink:href="#HelveticaNeue-34" transform="translate(55.599991 0)"/>
       <use xlink:href="#HelveticaNeue-30" transform="translate(111.199982 0)"/>
      </g>
     </g>
    </g>
    <g id="ytick_4">
     <g id="line2d_21">
      <path d="M 47.743281 77.545545 
L 460.663281 77.545545 
" clip-path="url(#pa2ab190cb0)" style="fill: none; stroke: #e7ebeb; stroke-width: 0.8; stroke-linecap: square"/>
     </g>
     <g id="line2d_22"/>
     <g id="text_12">
      <!-- 960 -->
      <g style="fill: #9aa0a0" transform="translate(25.897344 81.472889) scale(0.11 -0.11)">
       <defs>
        <path id="HelveticaNeue-36" d="M 2650 3379 
L 3194 3379 
Q 3142 3942 2809 4240 
Q 2477 4538 1914 4538 
Q 1427 4538 1107 4333 
Q 787 4128 595 3789 
Q 403 3450 323 3011 
Q 243 2573 243 2106 
Q 243 1747 297 1363 
Q 352 979 518 659 
Q 685 339 992 134 
Q 1299 -70 1805 -70 
Q 2234 -70 2525 74 
Q 2816 218 2992 438 
Q 3168 659 3245 928 
Q 3322 1197 3322 1446 
Q 3322 1760 3226 2029 
Q 3130 2298 2954 2496 
Q 2778 2694 2518 2806 
Q 2259 2918 1933 2918 
Q 1562 2918 1277 2777 
Q 992 2637 800 2323 
L 787 2336 
Q 794 2598 838 2899 
Q 883 3200 1001 3459 
Q 1120 3718 1331 3888 
Q 1542 4058 1888 4058 
Q 2214 4058 2412 3872 
Q 2611 3686 2650 3379 
z
M 1830 2438 
Q 2061 2438 2233 2355 
Q 2406 2272 2521 2134 
Q 2637 1997 2691 1808 
Q 2746 1619 2746 1408 
Q 2746 1210 2685 1027 
Q 2624 845 2509 704 
Q 2394 563 2224 483 
Q 2054 403 1830 403 
Q 1606 403 1430 483 
Q 1254 563 1136 697 
Q 1018 832 954 1017 
Q 890 1203 890 1414 
Q 890 1626 950 1814 
Q 1011 2003 1132 2140 
Q 1254 2278 1427 2358 
Q 1600 2438 1830 2438 
z
" transform="scale(0.015625)"/>
       </defs>
       <use xlink:href="#HelveticaNeue-39"/>
       <use xlink:href="#HelveticaNeue-36" transform="translate(55.599991 0)"/>
       <use xlink:href="#HelveticaNeue-30" transform="translate(111.199982 0)"/>
      </g>
     </g>
    </g>
    <g id="ytick_5">
     <g id="line2d_23">
      <path d="M 47.743281 45.561724 
L 460.663281 45.561724 
" clip-path="url(#pa2ab190cb0)" style="fill: none; stroke: #e7ebeb; stroke-width: 0.8; stroke-linecap: square"/>
     </g>
     <g id="line2d_24"/>
     <g id="text_13">
      <!-- 980 -->
      <g style="fill: #9aa0a0" transform="translate(25.897344 49.489067) scale(0.11 -0.11)">
       <defs>
        <path id="HelveticaNeue-38" d="M 992 3360 
Q 992 3533 1056 3661 
Q 1120 3789 1225 3878 
Q 1331 3968 1478 4013 
Q 1626 4058 1786 4058 
Q 2118 4058 2332 3882 
Q 2547 3706 2547 3360 
Q 2547 3014 2336 2822 
Q 2125 2630 1798 2630 
Q 1632 2630 1485 2675 
Q 1338 2720 1229 2809 
Q 1120 2899 1056 3036 
Q 992 3174 992 3360 
z
M 416 3379 
Q 416 3072 589 2813 
Q 762 2554 1050 2438 
Q 666 2304 461 2006 
Q 256 1709 256 1306 
Q 256 960 374 701 
Q 493 442 701 269 
Q 909 96 1190 13 
Q 1472 -70 1798 -70 
Q 2112 -70 2387 19 
Q 2662 109 2864 285 
Q 3066 461 3184 717 
Q 3302 973 3302 1306 
Q 3302 1728 3104 2019 
Q 2906 2310 2496 2438 
Q 2784 2566 2953 2819 
Q 3123 3072 3123 3379 
Q 3123 3597 3046 3805 
Q 2970 4013 2806 4176 
Q 2643 4339 2380 4438 
Q 2118 4538 1747 4538 
Q 1485 4538 1245 4461 
Q 1005 4384 819 4237 
Q 634 4090 525 3875 
Q 416 3661 416 3379 
z
M 832 1280 
Q 832 1478 905 1638 
Q 979 1798 1110 1913 
Q 1242 2029 1418 2089 
Q 1594 2150 1792 2150 
Q 1984 2150 2153 2083 
Q 2323 2016 2451 1901 
Q 2579 1786 2652 1629 
Q 2726 1472 2726 1286 
Q 2726 1094 2659 934 
Q 2592 774 2467 656 
Q 2342 538 2172 470 
Q 2003 403 1798 403 
Q 1376 403 1104 636 
Q 832 870 832 1280 
z
" transform="scale(0.015625)"/>
       </defs>
       <use xlink:href="#HelveticaNeue-39"/>
       <use xlink:href="#HelveticaNeue-38" transform="translate(55.599991 0)"/>
       <use xlink:href="#HelveticaNeue-30" transform="translate(111.199982 0)"/>
      </g>
     </g>
    </g>
    <g id="ytick_6">
     <g id="line2d_25">
      <path d="M 47.743281 13.577902 
L 460.663281 13.577902 
" clip-path="url(#pa2ab190cb0)" style="fill: none; stroke: #e7ebeb; stroke-width: 0.8; stroke-linecap: square"/>
     </g>
     <g id="line2d_26"/>
     <g id="text_14">
      <!-- 1000 -->
      <g style="fill: #9aa0a0" transform="translate(19.782031 17.505246) scale(0.11 -0.11)">
       <use xlink:href="#HelveticaNeue-31"/>
       <use xlink:href="#HelveticaNeue-30" transform="translate(55.599991 0)"/>
       <use xlink:href="#HelveticaNeue-30" transform="translate(111.199982 0)"/>
       <use xlink:href="#HelveticaNeue-30" transform="translate(166.799973 0)"/>
      </g>
     </g>
    </g>
    <g id="text_15">
     <!-- loss -->
     <g style="fill: #1b1b1b" transform="translate(13.614687 101.570516) rotate(-90) scale(0.11 -0.11)">
      <defs>
       <path id="HelveticaNeue-6c" d="M 442 4570 
L 442 0 
L 986 0 
L 986 4570 
L 442 4570 
z
" transform="scale(0.015625)"/>
      </defs>
      <use xlink:href="#HelveticaNeue-6c"/>
      <use xlink:href="#HelveticaNeue-6f" transform="translate(22.199997 0)"/>
      <use xlink:href="#HelveticaNeue-73" transform="translate(79.599991 0)"/>
      <use xlink:href="#HelveticaNeue-73" transform="translate(129.599976 0)"/>
     </g>
    </g>
   </g>
   <g id="line2d_27">
    <path d="M 66.512372 13.572 
L 67.689118 15.307755 
L 70.042609 27.13288 
L 71.219354 28.000625 
L 72.3961 33.470881 
L 73.572845 31.255313 
L 74.749591 27.882342 
L 75.926336 39.380947 
L 77.103082 42.64425 
L 78.279827 39.907156 
L 79.456573 43.077835 
L 80.633318 46.761448 
L 81.810064 54.153882 
L 82.986809 52.199699 
L 84.163555 51.040988 
L 85.3403 63.092188 
L 86.517046 61.05532 
L 87.693791 70.149069 
L 88.870537 69.334759 
L 90.047282 74.057662 
L 91.224028 68.377792 
L 92.400773 75.314142 
L 93.577519 69.87202 
L 94.754264 72.318728 
L 95.93101 75.823192 
L 97.107755 88.81556 
L 98.284501 81.100597 
L 99.461246 80.484815 
L 100.637992 81.406319 
L 101.814738 90.951351 
L 102.991483 87.526462 
L 104.168229 91.517225 
L 105.344974 92.256559 
L 106.52172 84.805621 
L 107.698465 95.255435 
L 108.875211 92.990466 
L 110.051956 90.012791 
L 111.228702 98.445622 
L 112.405447 97.541145 
L 113.582193 97.8049 
L 114.758938 99.329254 
L 115.935684 106.78436 
L 118.289175 96.848398 
L 119.46592 111.979782 
L 120.642666 101.597933 
L 122.996157 111.049511 
L 124.172902 99.46346 
L 125.349648 106.468279 
L 126.526393 116.920224 
L 127.703139 111.827439 
L 128.879884 110.414233 
L 130.05663 115.060757 
L 131.233375 111.831458 
L 132.410121 116.358663 
L 134.763612 110.940684 
L 135.940357 121.95532 
L 137.117103 118.59173 
L 138.293848 122.62284 
L 139.470594 120.60497 
L 140.647339 127.708742 
L 141.824085 125.572344 
L 143.00083 124.497237 
L 144.177576 119.990191 
L 145.354321 119.537497 
L 146.531067 132.095175 
L 147.707812 130.255794 
L 148.884558 124.022519 
L 150.061303 137.352509 
L 151.238049 130.668791 
L 152.414795 129.552061 
L 153.59154 123.679283 
L 154.768286 127.013298 
L 155.945031 132.488027 
L 157.121777 133.270771 
L 158.298522 133.274294 
L 159.475268 125.323623 
L 160.652013 135.232968 
L 161.828759 135.171023 
L 163.005504 132.54538 
L 164.18225 135.327724 
L 165.358995 136.194933 
L 166.535741 141.082404 
L 167.712486 136.271247 
L 168.889232 138.81196 
L 170.065977 131.546854 
L 171.242723 134.455732 
L 172.419468 138.142502 
L 173.596214 135.248145 
L 174.772959 140.503973 
L 175.949705 134.235241 
L 177.12645 139.709271 
L 178.303196 137.276217 
L 179.479941 146.651254 
L 180.656687 139.16952 
L 181.833432 149.298437 
L 183.010178 151.322151 
L 184.186923 143.368744 
L 185.363669 146.568242 
L 186.540414 141.798964 
L 187.71716 132.144514 
L 188.893905 147.224824 
L 190.070651 146.541611 
L 191.247396 142.869488 
L 192.424142 141.789653 
L 193.600887 145.29464 
L 194.777633 145.723235 
L 195.954378 141.645796 
L 197.131124 142.796095 
L 198.307869 150.51797 
L 199.484615 146.201257 
L 200.66136 145.908862 
L 201.838106 151.388252 
L 203.014851 145.3283 
L 204.191597 150.931221 
L 205.368343 142.386486 
L 206.545088 146.355106 
L 207.721834 147.076087 
L 208.898579 150.559827 
L 210.075325 148.508317 
L 211.25207 157.733842 
L 212.428816 153.783127 
L 213.605561 146.815456 
L 214.782307 158.964834 
L 215.959052 144.88356 
L 217.135798 157.510374 
L 218.312543 145.686827 
L 219.489289 153.553612 
L 220.666034 145.936001 
L 221.84278 149.217141 
L 223.019525 157.386805 
L 224.196271 144.185483 
L 225.373016 143.422691 
L 226.549762 150.812572 
L 227.726507 151.965022 
L 228.903253 151.568498 
L 230.079998 155.627215 
L 231.256744 145.822387 
L 232.433489 153.838422 
L 233.610235 151.617272 
L 234.78698 155.312375 
L 235.963726 154.641941 
L 237.140471 157.897225 
L 238.317217 145.862465 
L 239.493962 152.755923 
L 240.670708 147.503217 
L 241.847453 152.19134 
L 243.024199 155.702094 
L 244.200944 154.050779 
L 245.37769 155.281593 
L 246.554435 152.663594 
L 247.731181 154.607712 
L 248.907926 154.349481 
L 250.084672 159.625372 
L 251.261417 156.981217 
L 252.438163 145.271437 
L 253.614908 156.521652 
L 254.791654 158.450839 
L 255.9684 151.865755 
L 257.145145 146.820981 
L 258.321891 160.634689 
L 259.498636 154.743828 
L 260.675382 156.858418 
L 261.852127 162.355574 
L 263.028873 150.460166 
L 264.205618 154.175844 
L 265.382364 153.796261 
L 266.559109 157.822255 
L 267.735855 152.031126 
L 268.9126 156.800305 
L 270.089346 154.898575 
L 271.266091 159.529948 
L 272.442837 160.047328 
L 273.619582 147.805674 
L 274.796328 156.645858 
L 275.973073 152.813628 
L 277.149819 154.375098 
L 278.326564 156.329412 
L 279.50331 156.649966 
L 280.680055 151.190119 
L 281.856801 155.661218 
L 284.210292 154.106376 
L 285.387037 148.568601 
L 286.563783 150.948185 
L 287.740528 152.377433 
L 288.917274 156.916761 
L 290.094019 160.843082 
L 291.270765 149.657547 
L 292.44751 149.576385 
L 293.624256 154.888045 
L 294.801001 151.613259 
L 295.977747 150.463956 
L 297.154492 150.225318 
L 298.331238 149.792581 
L 299.507983 156.398845 
L 300.684729 146.944792 
L 301.861474 160.193608 
L 303.03822 150.078806 
L 304.214965 151.843311 
L 305.391711 150.021734 
L 306.568457 145.198306 
L 307.745202 147.09125 
L 308.921948 159.707056 
L 310.098693 162.314512 
L 311.275439 150.293901 
L 312.452184 159.082582 
L 313.62893 154.272502 
L 314.805675 150.184332 
L 315.982421 162.099224 
L 317.159166 164.335772 
L 318.335912 152.96898 
L 319.512657 154.000041 
L 320.689403 155.392244 
L 321.866148 154.028113 
L 323.042894 158.341373 
L 324.219639 161.474086 
L 325.396385 155.012525 
L 326.57313 158.87483 
L 327.749876 162.097708 
L 328.926621 151.786944 
L 330.103367 154.50755 
L 331.280112 152.262636 
L 332.456858 158.959201 
L 333.633603 157.370071 
L 334.810349 159.005968 
L 335.987094 158.466715 
L 337.16384 153.275502 
L 338.340585 157.969364 
L 339.517331 152.504732 
L 340.694076 152.582982 
L 341.870822 144.497128 
L 343.047567 160.894993 
L 344.224313 149.953209 
L 345.401058 154.642311 
L 346.577804 154.280295 
L 347.754549 161.168814 
L 348.931295 156.4208 
L 350.10804 150.647443 
L 351.284786 154.608682 
L 352.461531 153.824122 
L 353.638277 155.607721 
L 354.815022 148.673853 
L 355.991768 154.316002 
L 357.168514 164.769641 
L 358.345259 157.533255 
L 360.69875 169.812 
L 361.875496 156.756253 
L 363.052241 147.815135 
L 365.405732 159.83836 
L 366.582478 158.726063 
L 367.759223 148.788786 
L 368.935969 153.456761 
L 371.28946 154.469473 
L 372.466205 154.028758 
L 373.642951 150.348993 
L 374.819696 151.562004 
L 375.996442 153.178127 
L 377.173187 159.216223 
L 378.349933 151.760904 
L 379.526678 157.495711 
L 380.703424 148.965181 
L 381.880169 160.310945 
L 383.056915 154.873233 
L 384.23366 154.248288 
L 385.410406 160.56807 
L 386.587151 145.951701 
L 387.763897 147.206578 
L 388.940642 156.437063 
L 390.117388 150.510597 
L 391.294133 152.39626 
L 392.470879 166.751729 
L 393.647624 153.011683 
L 394.82437 154.507289 
L 396.001115 153.813745 
L 397.177861 159.379372 
L 398.354606 155.505198 
L 399.531352 155.068195 
L 400.708097 148.513017 
L 401.884843 152.608548 
L 403.061588 154.239637 
L 404.238334 146.87764 
L 405.415079 156.876829 
L 406.591825 156.081306 
L 407.768571 162.929001 
L 408.945316 146.685086 
L 410.122062 149.586531 
L 411.298807 149.81434 
L 412.475553 151.003897 
L 413.652298 153.68454 
L 414.829044 153.179162 
L 416.005789 155.422006 
L 417.182535 155.189774 
L 418.35928 153.95246 
L 419.536026 146.959873 
L 420.712771 151.547033 
L 421.889517 154.493453 
L 423.066262 156.992662 
L 424.243008 157.259438 
L 425.419753 146.523891 
L 426.596499 151.782117 
L 428.94999 155.873819 
L 430.126735 159.533751 
L 431.303481 154.533759 
L 432.480226 150.021548 
L 433.656972 156.096212 
L 434.833717 155.303199 
L 436.010463 155.273414 
L 437.187208 153.687199 
L 438.363954 161.855572 
L 439.540699 155.342327 
L 440.717445 158.312011 
L 441.89419 149.969124 
L 441.89419 149.969124 
" clip-path="url(#pa2ab190cb0)" style="fill: none; stroke: #9aa0a0; stroke-opacity: 0.85; stroke-width: 0.9; stroke-linecap: square"/>
   </g>
   <g id="line2d_28">
    <path d="M 66.512372 13.577902 
L 70.042609 22.860201 
L 73.572845 31.543856 
L 77.103082 39.667477 
L 80.633318 47.26718 
L 84.163555 54.376756 
L 87.693791 61.027814 
L 91.224028 67.249925 
L 94.754264 73.070753 
L 98.284501 78.516179 
L 101.814738 83.610412 
L 105.344974 88.376104 
L 108.875211 92.834441 
L 112.405447 97.005247 
L 115.935684 100.907065 
L 120.642666 105.720884 
L 125.349648 110.125275 
L 130.05663 114.155061 
L 134.763612 117.842102 
L 139.470594 121.21555 
L 144.177576 124.302076 
L 148.884558 127.126086 
L 153.59154 129.709905 
L 158.298522 132.073963 
L 164.18225 134.748319 
L 170.065977 137.141438 
L 175.949705 139.282894 
L 181.833432 141.199154 
L 188.893905 143.234571 
L 195.954378 145.015914 
L 203.014851 146.574897 
L 211.25207 148.149507 
L 219.489289 149.497279 
L 228.903253 150.801525 
L 239.493962 152.016677 
L 250.084672 153.011559 
L 261.852127 153.906954 
L 267.735855 154.212986 
L 441.89419 154.212986 
L 441.89419 154.212986 
" clip-path="url(#pa2ab190cb0)" style="fill: none; stroke: #0f766e; stroke-width: 2.6; stroke-linecap: square"/>
   </g>
   <g id="patch_3">
    <path d="M 47.743281 177.624 
L 47.743281 5.76 
" style="fill: none; stroke: #c8cfcf; stroke-width: 0.9; stroke-linejoin: miter; stroke-linecap: square"/>
   </g>
   <g id="patch_4">
    <path d="M 47.743281 177.624 
L 460.663281 177.624 
" style="fill: none; stroke: #c8cfcf; stroke-width: 0.9; stroke-linejoin: miter; stroke-linecap: square"/>
   </g>
   <g id="legend_1">
    <g id="line2d_29">
     <path d="M 239.897656 18.569375 
L 249.897656 18.569375 
L 259.897656 18.569375 
" style="fill: none; stroke: #9aa0a0; stroke-opacity: 0.85; stroke-width: 0.9; stroke-linecap: square"/>
    </g>
    <g id="text_16">
     <!-- measured loss (single sample, minibatch) -->
     <g style="fill: #1b1b1b" transform="translate(267.897656 22.069375) scale(0.1 -0.1)">
      <defs>
       <path id="HelveticaNeue-75" d="M 3149 0 
L 3149 3309 
L 2605 3309 
L 2605 1440 
Q 2605 1216 2544 1027 
Q 2483 838 2361 697 
Q 2240 557 2057 480 
Q 1875 403 1626 403 
Q 1312 403 1133 582 
Q 954 762 954 1069 
L 954 3309 
L 410 3309 
L 410 1133 
Q 410 864 464 643 
Q 518 422 652 262 
Q 787 102 1004 16 
Q 1222 -70 1549 -70 
Q 1914 -70 2182 74 
Q 2451 218 2624 525 
L 2637 525 
L 2637 0 
L 3149 0 
z
" transform="scale(0.015625)"/>
       <path id="HelveticaNeue-72" d="M 390 3309 
L 390 0 
L 934 0 
L 934 1472 
Q 934 1792 998 2038 
Q 1062 2285 1203 2457 
Q 1344 2630 1574 2720 
Q 1805 2810 2131 2810 
L 2131 3386 
Q 1690 3398 1402 3206 
Q 1114 3014 915 2611 
L 902 2611 
L 902 3309 
L 390 3309 
z
" transform="scale(0.015625)"/>
       <path id="HelveticaNeue-64" d="M 806 1626 
Q 806 1869 857 2099 
Q 909 2330 1024 2509 
Q 1139 2688 1331 2797 
Q 1523 2906 1798 2906 
Q 2080 2906 2278 2800 
Q 2477 2694 2601 2521 
Q 2726 2349 2784 2121 
Q 2842 1894 2842 1651 
Q 2842 1421 2787 1197 
Q 2733 973 2611 797 
Q 2490 621 2298 512 
Q 2106 403 1830 403 
Q 1568 403 1373 505 
Q 1178 608 1053 781 
Q 928 954 867 1174 
Q 806 1395 806 1626 
z
M 3366 0 
L 3366 4570 
L 2822 4570 
L 2822 2867 
L 2810 2867 
Q 2720 3014 2589 3113 
Q 2458 3213 2310 3273 
Q 2163 3334 2016 3360 
Q 1869 3386 1741 3386 
Q 1363 3386 1078 3248 
Q 794 3110 605 2876 
Q 416 2643 323 2329 
Q 230 2016 230 1664 
Q 230 1312 326 998 
Q 422 685 611 448 
Q 800 211 1085 70 
Q 1370 -70 1754 -70 
Q 2099 -70 2387 51 
Q 2675 173 2810 448 
L 2822 448 
L 2822 0 
L 3366 0 
z
" transform="scale(0.015625)"/>
       <path id="HelveticaNeue-28" d="M 1306 -1261 
L 1722 -1261 
Q 1267 -525 1072 198 
Q 877 922 877 1728 
Q 877 2515 1069 3232 
Q 1261 3949 1722 4678 
L 1306 4678 
Q 806 4019 553 3251 
Q 301 2483 301 1728 
Q 301 1306 371 922 
Q 442 538 573 173 
Q 704 -192 889 -547 
Q 1075 -902 1306 -1261 
z
" transform="scale(0.015625)"/>
       <path id="HelveticaNeue-67" d="M 3264 282 
L 3264 3309 
L 2752 3309 
L 2752 2835 
L 2746 2835 
Q 2598 3110 2336 3248 
Q 2074 3386 1760 3386 
Q 1331 3386 1036 3222 
Q 742 3059 563 2806 
Q 384 2554 307 2243 
Q 230 1933 230 1638 
Q 230 1299 323 995 
Q 416 691 601 464 
Q 787 237 1062 102 
Q 1338 -32 1709 -32 
Q 2029 -32 2313 112 
Q 2598 256 2739 563 
L 2752 563 
L 2752 346 
Q 2752 70 2697 -160 
Q 2643 -390 2521 -553 
Q 2400 -717 2214 -809 
Q 2029 -902 1760 -902 
Q 1626 -902 1478 -873 
Q 1331 -845 1206 -781 
Q 1082 -717 995 -614 
Q 909 -512 902 -365 
L 358 -365 
Q 371 -634 499 -819 
Q 627 -1005 822 -1120 
Q 1018 -1235 1258 -1286 
Q 1498 -1338 1728 -1338 
Q 2522 -1338 2893 -934 
Q 3264 -531 3264 282 
z
M 1741 442 
Q 1472 442 1293 554 
Q 1114 666 1005 848 
Q 896 1030 851 1254 
Q 806 1478 806 1702 
Q 806 1939 860 2156 
Q 915 2374 1033 2540 
Q 1152 2707 1337 2806 
Q 1523 2906 1786 2906 
Q 2042 2906 2221 2803 
Q 2400 2701 2512 2531 
Q 2624 2362 2675 2150 
Q 2726 1939 2726 1722 
Q 2726 1491 2672 1260 
Q 2618 1030 2502 848 
Q 2387 666 2198 554 
Q 2010 442 1741 442 
z
" transform="scale(0.015625)"/>
       <path id="HelveticaNeue-2c" d="M 531 710 
L 531 0 
L 909 0 
Q 915 -77 899 -166 
Q 883 -256 838 -342 
Q 794 -429 720 -502 
Q 646 -576 538 -614 
L 538 -934 
Q 909 -826 1075 -563 
Q 1242 -301 1242 64 
L 1242 710 
L 531 710 
z
" transform="scale(0.015625)"/>
       <path id="HelveticaNeue-62" d="M 429 4570 
L 429 0 
L 973 0 
L 973 442 
L 986 442 
Q 1075 294 1206 195 
Q 1338 96 1485 38 
Q 1632 -19 1782 -44 
Q 1933 -70 2054 -70 
Q 2432 -70 2717 64 
Q 3002 198 3190 432 
Q 3379 666 3472 979 
Q 3565 1293 3565 1645 
Q 3565 1997 3469 2310 
Q 3373 2624 3184 2864 
Q 2995 3104 2710 3245 
Q 2426 3386 2042 3386 
Q 1696 3386 1408 3261 
Q 1120 3136 986 2861 
L 973 2861 
L 973 4570 
L 429 4570 
z
M 2989 1683 
Q 2989 1440 2937 1209 
Q 2886 979 2771 800 
Q 2656 621 2467 512 
Q 2278 403 1997 403 
Q 1715 403 1516 508 
Q 1318 614 1193 787 
Q 1069 960 1011 1187 
Q 954 1414 954 1658 
Q 954 1888 1008 2112 
Q 1062 2336 1184 2512 
Q 1306 2688 1498 2797 
Q 1690 2906 1965 2906 
Q 2227 2906 2422 2803 
Q 2618 2701 2742 2528 
Q 2867 2355 2928 2134 
Q 2989 1914 2989 1683 
z
" transform="scale(0.015625)"/>
       <path id="HelveticaNeue-63" d="M 2656 2246 
L 3219 2246 
Q 3187 2541 3065 2755 
Q 2944 2970 2755 3110 
Q 2566 3251 2320 3318 
Q 2074 3386 1792 3386 
Q 1402 3386 1107 3248 
Q 813 3110 617 2870 
Q 422 2630 326 2307 
Q 230 1984 230 1613 
Q 230 1242 329 931 
Q 429 621 624 397 
Q 819 173 1110 51 
Q 1402 -70 1779 -70 
Q 2413 -70 2781 262 
Q 3149 595 3238 1210 
L 2682 1210 
Q 2630 826 2403 614 
Q 2176 403 1773 403 
Q 1517 403 1331 505 
Q 1146 608 1030 777 
Q 915 947 860 1164 
Q 806 1382 806 1613 
Q 806 1862 857 2096 
Q 909 2330 1027 2509 
Q 1146 2688 1344 2797 
Q 1542 2906 1837 2906 
Q 2182 2906 2387 2733 
Q 2592 2560 2656 2246 
z
" transform="scale(0.015625)"/>
       <path id="HelveticaNeue-68" d="M 410 4570 
L 410 0 
L 954 0 
L 954 1869 
Q 954 2093 1014 2281 
Q 1075 2470 1196 2611 
Q 1318 2752 1500 2829 
Q 1683 2906 1933 2906 
Q 2246 2906 2425 2726 
Q 2605 2547 2605 2240 
L 2605 0 
L 3149 0 
L 3149 2176 
Q 3149 2445 3094 2665 
Q 3040 2886 2905 3046 
Q 2771 3206 2553 3296 
Q 2336 3386 2010 3386 
Q 1862 3386 1705 3354 
Q 1549 3322 1405 3254 
Q 1261 3187 1145 3081 
Q 1030 2976 966 2822 
L 954 2822 
L 954 4570 
L 410 4570 
z
" transform="scale(0.015625)"/>
       <path id="HelveticaNeue-29" d="M -58 -1261 
L 352 -1261 
Q 851 -602 1104 163 
Q 1357 928 1357 1683 
Q 1357 2106 1286 2490 
Q 1216 2874 1085 3242 
Q 954 3610 768 3965 
Q 582 4320 352 4678 
L -58 4678 
Q 390 3942 585 3216 
Q 781 2490 781 1683 
Q 781 902 589 182 
Q 397 -538 -58 -1261 
z
" transform="scale(0.015625)"/>
      </defs>
      <use xlink:href="#HelveticaNeue-6d"/>
      <use xlink:href="#HelveticaNeue-65" transform="translate(85.299988 0)"/>
      <use xlink:href="#HelveticaNeue-61" transform="translate(138.999985 0)"/>
      <use xlink:href="#HelveticaNeue-73" transform="translate(192.699982 0)"/>
      <use xlink:href="#HelveticaNeue-75" transform="translate(242.699966 0)"/>
      <use xlink:href="#HelveticaNeue-72" transform="translate(298.299957 0)"/>
      <use xlink:href="#HelveticaNeue-65" transform="translate(329.849945 0)"/>
      <use xlink:href="#HelveticaNeue-64" transform="translate(383.549942 0)"/>
      <use xlink:href="#HelveticaNeue-20" transform="translate(442.84993 0)"/>
      <use xlink:href="#HelveticaNeue-6c" transform="translate(470.649918 0)"/>
      <use xlink:href="#HelveticaNeue-6f" transform="translate(492.849915 0)"/>
      <use xlink:href="#HelveticaNeue-73" transform="translate(550.249908 0)"/>
      <use xlink:href="#HelveticaNeue-73" transform="translate(600.249893 0)"/>
      <use xlink:href="#HelveticaNeue-20" transform="translate(650.249878 0)"/>
      <use xlink:href="#HelveticaNeue-28" transform="translate(678.049866 0)"/>
      <use xlink:href="#HelveticaNeue-73" transform="translate(703.94986 0)"/>
      <use xlink:href="#HelveticaNeue-69" transform="translate(753.949844 0)"/>
      <use xlink:href="#HelveticaNeue-6e" transform="translate(776.149841 0)"/>
      <use xlink:href="#HelveticaNeue-67" transform="translate(831.749832 0)"/>
      <use xlink:href="#HelveticaNeue-6c" transform="translate(889.149826 0)"/>
      <use xlink:href="#HelveticaNeue-65" transform="translate(911.349823 0)"/>
      <use xlink:href="#HelveticaNeue-20" transform="translate(965.04982 0)"/>
      <use xlink:href="#HelveticaNeue-73" transform="translate(992.849808 0)"/>
      <use xlink:href="#HelveticaNeue-61" transform="translate(1042.849792 0)"/>
      <use xlink:href="#HelveticaNeue-6d" transform="translate(1096.549789 0)"/>
      <use xlink:href="#HelveticaNeue-70" transform="translate(1181.849777 0)"/>
      <use xlink:href="#HelveticaNeue-6c" transform="translate(1241.149765 0)"/>
      <use xlink:href="#HelveticaNeue-65" transform="translate(1263.349762 0)"/>
      <use xlink:href="#HelveticaNeue-2c" transform="translate(1317.049759 0)"/>
      <use xlink:href="#HelveticaNeue-20" transform="translate(1344.849747 0)"/>
      <use xlink:href="#HelveticaNeue-6d" transform="translate(1372.649734 0)"/>
      <use xlink:href="#HelveticaNeue-69" transform="translate(1457.949722 0)"/>
      <use xlink:href="#HelveticaNeue-6e" transform="translate(1480.149719 0)"/>
      <use xlink:href="#HelveticaNeue-69" transform="translate(1535.74971 0)"/>
      <use xlink:href="#HelveticaNeue-62" transform="translate(1557.949707 0)"/>
      <use xlink:href="#HelveticaNeue-61" transform="translate(1617.249695 0)"/>
      <use xlink:href="#HelveticaNeue-74" transform="translate(1670.949692 0)"/>
      <use xlink:href="#HelveticaNeue-63" transform="translate(1702.449677 0)"/>
      <use xlink:href="#HelveticaNeue-68" transform="translate(1756.149673 0)"/>
      <use xlink:href="#HelveticaNeue-29" transform="translate(1811.749664 0)"/>
     </g>
    </g>
    <g id="line2d_30">
     <path d="M 239.897656 32.969375 
L 249.897656 32.969375 
L 259.897656 32.969375 
" style="fill: none; stroke: #0f766e; stroke-width: 2.6; stroke-linecap: square"/>
    </g>
    <g id="text_17">
     <!-- true trend (the real progress) -->
     <g style="fill: #1b1b1b" transform="translate(267.897656 36.469375) scale(0.1 -0.1)">
      <use xlink:href="#HelveticaNeue-74"/>
      <use xlink:href="#HelveticaNeue-72" transform="translate(31.499985 0)"/>
      <use xlink:href="#HelveticaNeue-75" transform="translate(64.799973 0)"/>
      <use xlink:href="#HelveticaNeue-65" transform="translate(120.399963 0)"/>
      <use xlink:href="#HelveticaNeue-20" transform="translate(174.09996 0)"/>
      <use xlink:href="#HelveticaNeue-74" transform="translate(201.899948 0)"/>
      <use xlink:href="#HelveticaNeue-72" transform="translate(233.399933 0)"/>
      <use xlink:href="#HelveticaNeue-65" transform="translate(264.949921 0)"/>
      <use xlink:href="#HelveticaNeue-6e" transform="translate(318.649918 0)"/>
      <use xlink:href="#HelveticaNeue-64" transform="translate(374.249908 0)"/>
      <use xlink:href="#HelveticaNeue-20" transform="translate(433.549896 0)"/>
      <use xlink:href="#HelveticaNeue-28" transform="translate(461.349884 0)"/>
      <use xlink:href="#HelveticaNeue-74" transform="translate(487.249878 0)"/>
      <use xlink:href="#HelveticaNeue-68" transform="translate(518.749863 0)"/>
      <use xlink:href="#HelveticaNeue-65" transform="translate(574.349854 0)"/>
      <use xlink:href="#HelveticaNeue-20" transform="translate(628.04985 0)"/>
      <use xlink:href="#HelveticaNeue-72" transform="translate(655.849838 0)"/>
      <use xlink:href="#HelveticaNeue-65" transform="translate(687.399826 0)"/>
      <use xlink:href="#HelveticaNeue-61" transform="translate(741.099823 0)"/>
      <use xlink:href="#HelveticaNeue-6c" transform="translate(794.79982 0)"/>
      <use xlink:href="#HelveticaNeue-20" transform="translate(816.999817 0)"/>
      <use xlink:href="#HelveticaNeue-70" transform="translate(844.799805 0)"/>
      <use xlink:href="#HelveticaNeue-72" transform="translate(904.099792 0)"/>
      <use xlink:href="#HelveticaNeue-6f" transform="translate(935.64978 0)"/>
      <use xlink:href="#HelveticaNeue-67" transform="translate(993.049774 0)"/>
      <use xlink:href="#HelveticaNeue-72" transform="translate(1050.449768 0)"/>
      <use xlink:href="#HelveticaNeue-65" transform="translate(1081.999756 0)"/>
      <use xlink:href="#HelveticaNeue-73" transform="translate(1135.699753 0)"/>
      <use xlink:href="#HelveticaNeue-73" transform="translate(1185.699738 0)"/>
      <use xlink:href="#HelveticaNeue-29" transform="translate(1235.699722 0)"/>
     </g>
    </g>
   </g>
  </g>
 </g>
 <defs>
  <clipPath id="pa2ab190cb0">
   <rect x="47.743281" y="5.76" width="412.92" height="171.864"/>
  </clipPath>
 </defs>
</svg>
